<svg width="172" height="32" viewBox="0 0 172 32" fill="none" xmlns="http://www.w3.org/2000/svg">
<g clip-path="url(#clip0_7_56)">
<path d="M27.0628 25.1429L32 12.0229L17.0514 8.68573L15.0857 14.2629L27.0628 25.1429Z" fill="#247CE6"/>
<path d="M32 25.6457L24.4572 32L9.41718 28.1143L13.44 20.8L32 25.6457Z" fill="url(#paint0_linear_7_56)"/>
<path d="M4.4343 15.9086L0.594299 4.93714L17.5543 0L16.1829 14.1714L4.4343 15.9086Z" fill="url(#paint1_linear_7_56)"/>
<path d="M27.9314 18.5143L23.1771 10.3771L23.2686 10.3314L17.5543 0L0 18.9714V32L31.9086 25.6457L27.9314 18.5143Z" fill="url(#paint2_linear_7_56)"/>
<path d="M6.12567 6.12567H25.8742V25.8742H6.12567V6.12567Z" fill="black"/>
<path d="M8 23H15.4057V24.2343H8V23Z" fill="white"/>
<path d="M8 9H14.1714V10.6H9.78286V12.2457H13.6686V13.8457H9.82857V15.5829H14.2629V17.1829H8V9Z" fill="white"/>
<path d="M16 9H17.9657L20.1143 12.4743L22.2629 9H24.2286V17.1829H22.4V11.8343L20.1143 15.3543H20.0686L17.7829 11.88V17.1829H16V9Z" fill="white"/>
</g>
<path d="M43.392 26.28C42.16 26.28 41.0867 26.0467 40.172 25.58C39.2573 25.1133 38.5387 24.4413 38.016 23.564C37.512 22.6867 37.26 21.632 37.26 20.4C37.26 19.3547 37.4467 18.3747 37.82 17.46C38.212 16.5453 38.7533 15.7427 39.444 15.052C40.1533 14.3613 40.984 13.82 41.936 13.428C42.888 13.036 43.9333 12.84 45.072 12.84C46.3227 12.84 47.368 13.064 48.208 13.512C49.0667 13.96 49.72 14.604 50.168 15.444C50.616 16.284 50.84 17.3107 50.84 18.524C50.84 18.8227 50.812 19.1493 50.756 19.504C50.7 19.84 50.6253 20.1293 50.532 20.372H39.164V18.132H47.76L46.808 19.42C46.9013 19.2333 46.9853 19.028 47.06 18.804C47.1347 18.58 47.172 18.3653 47.172 18.16C47.172 17.5813 47.0787 17.0867 46.892 16.676C46.724 16.2653 46.4627 15.948 46.108 15.724C45.772 15.5 45.324 15.388 44.764 15.388C44.204 15.388 43.6907 15.5 43.224 15.724C42.776 15.948 42.384 16.2653 42.048 16.676C41.712 17.068 41.4413 17.544 41.236 18.104C41.0493 18.664 40.928 19.28 40.872 19.952C40.7973 20.6613 40.8533 21.2867 41.04 21.828C41.2267 22.3693 41.5347 22.7893 41.964 23.088C42.3933 23.368 42.944 23.508 43.616 23.508C44.3627 23.508 45.0253 23.34 45.604 23.004C46.2013 22.668 46.696 22.22 47.088 21.66L50.168 22.64C49.4773 23.7787 48.5627 24.6747 47.424 25.328C46.2853 25.9627 44.9413 26.28 43.392 26.28ZM54.8458 19.56C54.7524 20.232 54.8084 20.848 55.0138 21.408C55.2191 21.968 55.5551 22.416 56.0218 22.752C56.5071 23.088 57.0951 23.2653 57.7858 23.284C58.6258 23.3027 59.4191 23.116 60.1658 22.724C60.9311 22.3133 61.5564 21.828 62.0418 21.268L61.5378 24.964C60.9964 25.356 60.3618 25.6733 59.6338 25.916C58.9244 26.14 58.1404 26.252 57.2818 26.252C55.9751 26.252 54.8271 25.9627 53.8378 25.384C52.8671 24.7867 52.1391 23.984 51.6538 22.976C51.1871 21.9493 51.0378 20.8107 51.2058 19.56C51.3738 18.2533 51.8311 17.096 52.5778 16.088C53.3244 15.08 54.2671 14.2867 55.4058 13.708C56.5444 13.1293 57.7951 12.84 59.1578 12.84C59.9791 12.84 60.7258 12.952 61.3978 13.176C62.0698 13.4 62.6578 13.7173 63.1618 14.128L62.6578 17.852C62.3218 17.2173 61.8364 16.7227 61.2018 16.368C60.5858 15.9947 59.8951 15.808 59.1298 15.808C58.4018 15.808 57.7298 15.9853 57.1138 16.34C56.5164 16.676 56.0124 17.124 55.6018 17.684C55.2098 18.244 54.9578 18.8693 54.8458 19.56ZM63.4054 19.56C63.5921 18.2533 64.0588 17.096 64.8054 16.088C65.5521 15.08 66.4854 14.2867 67.6054 13.708C68.7441 13.1293 69.9761 12.84 71.3014 12.84C72.6268 12.84 73.7654 13.1387 74.7174 13.736C75.6881 14.3333 76.4068 15.1453 76.8734 16.172C77.3588 17.18 77.5174 18.3093 77.3494 19.56C77.1814 20.848 76.7241 21.996 75.9774 23.004C75.2308 24.012 74.2881 24.8053 73.1494 25.384C72.0294 25.9627 70.7974 26.252 69.4534 26.252C68.1468 26.252 67.0081 25.9627 66.0374 25.384C65.0854 24.7867 64.3668 23.984 63.8814 22.976C63.4148 21.9493 63.2561 20.8107 63.4054 19.56ZM67.0454 19.56C66.9521 20.176 66.9988 20.764 67.1854 21.324C67.3721 21.884 67.6801 22.332 68.1094 22.668C68.5388 23.004 69.0708 23.1813 69.7054 23.2C70.3774 23.2 70.9934 23.0413 71.5534 22.724C72.1321 22.388 72.6081 21.94 72.9814 21.38C73.3734 20.82 73.6161 20.2133 73.7094 19.56C73.8028 18.9067 73.7561 18.3093 73.5694 17.768C73.3828 17.2267 73.0748 16.7787 72.6454 16.424C72.2161 16.0693 71.6748 15.892 71.0214 15.892C70.3868 15.8733 69.7801 16.032 69.2014 16.368C68.6228 16.704 68.1468 17.152 67.7734 17.712C67.4001 18.272 67.1574 18.888 67.0454 19.56ZM97.4421 17.768L96.0421 26H92.4301L93.8581 18.16C93.8954 17.712 93.8954 17.292 93.8581 16.9C93.8207 16.4893 93.6994 16.1627 93.4941 15.92C93.3074 15.6773 92.9807 15.556 92.5141 15.556C92.0474 15.556 91.6181 15.668 91.2261 15.892C90.8527 16.116 90.5447 16.4147 90.3021 16.788C90.0781 17.1613 89.9194 17.6 89.8261 18.104L88.4821 26H84.9261L86.3261 18.16C86.3821 17.6933 86.3821 17.264 86.3261 16.872C86.2887 16.48 86.1674 16.1627 85.9621 15.92C85.7754 15.6773 85.4581 15.556 85.0101 15.556C84.5434 15.556 84.1234 15.6587 83.7501 15.864C83.3767 16.0693 83.0687 16.3587 82.8261 16.732C82.6021 17.1053 82.4434 17.5347 82.3501 18.02L80.9781 26H77.5061L79.7181 13.12H83.1901L82.9101 14.884C83.1901 14.4733 83.5167 14.1187 83.8901 13.82C84.2634 13.5027 84.6741 13.26 85.1221 13.092C85.5887 12.924 86.0927 12.84 86.6341 12.84C87.2874 12.8213 87.8287 12.9053 88.2581 13.092C88.7061 13.2787 89.0607 13.5493 89.3221 13.904C89.5834 14.24 89.7701 14.6507 89.8821 15.136C90.4047 14.4267 91.0207 13.8667 91.7301 13.456C92.4581 13.0453 93.2794 12.84 94.1941 12.84C95.1647 12.8213 95.9021 13.036 96.4061 13.484C96.9101 13.932 97.2367 14.5293 97.3861 15.276C97.5354 16.0227 97.5541 16.8533 97.4421 17.768Z" fill="white"/>
<path d="M104.448 15.024L101.312 26H97.14L103.552 5.392L109.32 18.02L119.54 5.28L118.812 26H114.724L115.34 15.164L108.368 24.208L104.448 15.024ZM123.176 26L123.764 22.612H133.424L132.836 26H123.176ZM125.948 9.788L126.536 6.4H136.196L135.608 9.788H125.948ZM124.66 17.236L125.248 13.932H134.376L133.788 17.236H124.66ZM124.016 6.4H127.852L124.464 26H120.684L124.016 6.4ZM141.441 16.872H145.473L150.121 26H145.613L141.441 16.872ZM138.837 6.4H142.785L139.425 26H135.505L138.837 6.4ZM140.629 9.816L141.217 6.4H145.137C146.518 6.4 147.694 6.66133 148.665 7.184C149.654 7.70667 150.392 8.43467 150.877 9.368C151.362 10.3013 151.512 11.3933 151.325 12.644C151.157 13.9133 150.7 15.0147 149.953 15.948C149.206 16.8813 148.254 17.6093 147.097 18.132C145.958 18.636 144.67 18.888 143.233 18.888H139.061L139.649 15.696H143.317C143.989 15.696 144.596 15.584 145.137 15.36C145.697 15.1173 146.164 14.772 146.537 14.324C146.91 13.876 147.153 13.3533 147.265 12.756C147.377 12.1587 147.33 11.6453 147.125 11.216C146.92 10.768 146.593 10.4227 146.145 10.18C145.697 9.93733 145.165 9.816 144.549 9.816H140.629ZM168.057 6.4H171.893L168.393 26.952L157.109 13.82L155.009 26H151.173L154.673 5.448L165.957 18.552L168.057 6.4Z" fill="url(#paint3_linear_7_56)"/>
<defs>
<linearGradient id="paint0_linear_7_56" x1="9.42495" y1="26.4023" x2="32" y2="26.4023" gradientUnits="userSpaceOnUse">
<stop offset="0.194" stop-color="#00DAF0"/>
<stop offset="0.903" stop-color="#247CE6"/>
</linearGradient>
<linearGradient id="paint1_linear_7_56" x1="0.582414" y1="7.96114" x2="17.5589" y2="7.96114" gradientUnits="userSpaceOnUse">
<stop offset="0.194" stop-color="#00DAF0"/>
<stop offset="0.903" stop-color="#247CE6"/>
</linearGradient>
<linearGradient id="paint2_linear_7_56" x1="20.9719" y1="33.0158" x2="5.11863" y2="10.891" gradientUnits="userSpaceOnUse">
<stop offset="0.091" stop-color="#1DDF93"/>
<stop offset="0.484" stop-color="#00DAF0"/>
<stop offset="0.903" stop-color="#247CE6"/>
</linearGradient>
<linearGradient id="paint3_linear_7_56" x1="97" y1="16.5" x2="172" y2="16.5" gradientUnits="userSpaceOnUse">
<stop offset="0.06" stop-color="#1DDF93"/>
<stop offset="0.432725" stop-color="#00DAF0"/>
<stop offset="0.95" stop-color="#247CE6"/>
</linearGradient>
<clipPath id="clip0_7_56">
<rect width="32" height="32" fill="white"/>
</clipPath>
</defs>
</svg>
