<svg width="23" height="22" viewBox="0 0 23 22" fill="none" xmlns="http://www.w3.org/2000/svg">
<rect x="1.5" y="1" width="20" height="20" rx="10" fill="#007AFF"/>
<rect x="1.5" y="1" width="20" height="20" rx="10" stroke="white" stroke-width="2"/>
<path d="M11.1731 6.75H7.75C7.33579 6.75 7 7.08579 7 7.5C7 7.91421 7.33579 8.25 7.75 8.25H11.1731C11.5873 8.25 11.9231 7.91421 11.9231 7.5C11.9231 7.08579 11.5873 6.75 11.1731 6.75Z" fill="white"/>
<path d="M16.0962 10H7.75C7.33579 10 7 10.3358 7 10.75C7 11.1642 7.33579 11.5 7.75 11.5H16.0962C16.5104 11.5 16.8462 11.1642 16.8462 10.75C16.8462 10.3358 16.5104 10 16.0962 10Z" fill="white"/>
<path d="M13.0192 13.25H7.75C7.33579 13.25 7 13.5858 7 14C7 14.4142 7.33579 14.75 7.75 14.75H13.0192C13.4334 14.75 13.7692 14.4142 13.7692 14C13.7692 13.5858 13.4334 13.25 13.0192 13.25Z" fill="white"/>
</svg>