<svg width="23" height="22" viewBox="0 0 23 22" fill="none" xmlns="http://www.w3.org/2000/svg">
<rect x="1.5" y="1" width="20" height="20" rx="10" fill="#FF007A"/>
<rect x="1.5" y="1" width="20" height="20" rx="10" stroke="#101010" stroke-width="2"/>
<path d="M7.5 10.3396C7.5 8.84296 8.57645 7.75 9.98174 7.75C10.5888 7.75 11.1118 7.95938 11.5009 8.30299C11.8914 7.95863 12.4119 7.75 13.0183 7.75C14.4276 7.75 15.5 8.84345 15.5 10.3396C15.5 11.2081 15.1297 12.037 14.5266 12.7947C13.9237 13.5521 13.0712 14.2609 12.0565 14.9023L12.0538 14.904C11.99 14.9437 11.9111 14.9882 11.8275 15.0242C11.7528 15.0563 11.6332 15.1001 11.5 15.1001C11.3669 15.1001 11.2469 15.0551 11.1752 15.0242C11.0932 14.9889 11.0148 14.9453 10.9515 14.9072L10.9475 14.9048L10.9435 14.9023C9.92882 14.2609 9.07626 13.5521 8.47338 12.7947C7.87032 12.037 7.5 11.2081 7.5 10.3396Z" fill="white"/>
</svg>
