<svg width="23" height="23" viewBox="0 0 23 23" fill="none" xmlns="http://www.w3.org/2000/svg">
<rect x="1.5" y="1.5" width="20" height="20" rx="10" fill="#6E3DEF"/>
<rect x="1.5" y="1.5" width="20" height="20" rx="10" stroke="white" stroke-width="2"/>
<path d="M8.31283 15.5C8.05932 15.5 7.85968 15.4466 7.7139 15.3398C7.5713 15.236 7.5 15.0921 7.5 14.9082C7.5 14.6235 7.5919 14.3224 7.7757 14.005C7.9595 13.6876 8.22569 13.391 8.57427 13.1151C8.92286 12.8363 9.34274 12.6109 9.83393 12.4388C10.3283 12.2638 10.8828 12.1763 11.4976 12.1763C12.1156 12.1763 12.6701 12.2638 13.1613 12.4388C13.6557 12.6109 14.0756 12.8363 14.421 13.1151C14.7696 13.391 15.0357 13.6876 15.2195 14.005C15.4065 14.3224 15.5 14.6235 15.5 14.9082C15.5 15.0921 15.4271 15.236 15.2813 15.3398C15.1387 15.4466 14.9407 15.5 14.6872 15.5H8.31283ZM11.5024 11.3799C11.1633 11.3799 10.8496 11.2938 10.5612 11.1218C10.2728 10.9468 10.0399 10.7125 9.86245 10.4188C9.68816 10.1222 9.60101 9.78995 9.60101 9.42214C9.60101 9.06025 9.68816 8.73396 9.86245 8.44327C10.0399 8.15258 10.2728 7.92269 10.5612 7.75362C10.8496 7.58454 11.1633 7.5 11.5024 7.5C11.8415 7.5 12.1552 7.58306 12.4436 7.74917C12.7319 7.91528 12.9633 8.14368 13.1376 8.43437C13.315 8.7221 13.4037 9.04839 13.4037 9.41324C13.4037 9.78402 13.315 10.1177 13.1376 10.4144C12.9633 10.711 12.7319 10.9468 12.4436 11.1218C12.1552 11.2938 11.8415 11.3799 11.5024 11.3799Z" fill="white"/>
</svg>