<svg width="23" height="22" viewBox="0 0 23 22" fill="none" xmlns="http://www.w3.org/2000/svg">
<rect x="1.5" y="1" width="20" height="20" rx="10" fill="#24C3FF"/>
<rect x="1.5" y="1" width="20" height="20" rx="10" stroke="#101010" stroke-width="2"/>
<path d="M11.1252 14.5C11.0337 14.5 10.9484 14.4796 10.8692 14.4389C10.79 14.4008 10.7059 14.3384 10.6169 14.2519L7.68924 11.4084C7.6175 11.3397 7.56803 11.2697 7.54082 11.1985C7.51361 11.1272 7.5 11.0611 7.5 11C7.5 10.9364 7.51361 10.869 7.54082 10.7977C7.56803 10.7265 7.6175 10.6565 7.68924 10.5878L10.6169 7.77099C10.7158 7.6743 10.8012 7.6056 10.8729 7.56489C10.9446 7.52163 11.0263 7.5 11.1178 7.5C11.2489 7.5 11.3553 7.5458 11.4369 7.6374C11.5186 7.72901 11.5594 7.83842 11.5594 7.96565V9.4084H11.667C12.3349 9.4084 12.91 9.51399 13.3924 9.72519C13.8772 9.93639 14.2743 10.2417 14.5835 10.6412C14.8952 11.0407 15.1252 11.5229 15.2737 12.0878C15.4246 12.6501 15.5 13.2837 15.5 13.9885C15.5 14.1539 15.4604 14.2799 15.3813 14.3664C15.3046 14.4555 15.2168 14.5 15.1178 14.5C15.0387 14.5 14.9583 14.4835 14.8766 14.4504C14.7975 14.4173 14.7257 14.3397 14.6614 14.2176C14.4462 13.8003 14.1976 13.4746 13.9156 13.2405C13.6336 13.0038 13.3083 12.8372 12.9397 12.7405C12.5711 12.6438 12.1469 12.5954 11.667 12.5954H11.5594V14.0534C11.5594 14.1832 11.5186 14.2901 11.4369 14.374C11.3553 14.458 11.2514 14.5 11.1252 14.5Z" fill="white"/>
</svg>