<svg width="24" height="24" viewBox="0 0 24 24" fill="none" xmlns="http://www.w3.org/2000/svg">
<path d="M12 0C9.62663 0 7.30655 0.703788 5.33316 2.02236C3.35977 3.34094 1.8217 5.21509 0.913451 7.4078C0.00519943 9.60051 -0.232441 12.0133 0.230582 14.3411C0.693605 16.6689 1.83649 18.8071 3.51472 20.4853C5.19295 22.1635 7.33115 23.3064 9.65892 23.7694C11.9867 24.2324 14.3995 23.9948 16.5922 23.0866C18.7849 22.1783 20.6591 20.6402 21.9776 18.6668C23.2962 16.6935 24 14.3734 24 12C24 8.8174 22.7357 5.76516 20.4853 3.51472C18.2349 1.26428 15.1826 0 12 0ZM17.139 16.056C17.2128 16.1265 17.2718 16.211 17.3125 16.3047C17.3532 16.3983 17.3748 16.4991 17.3759 16.6012C17.3771 16.7032 17.3579 16.8045 17.3194 16.899C17.2808 16.9936 17.2238 17.0794 17.1516 17.1516C17.0795 17.2238 16.9936 17.2808 16.899 17.3193C16.8045 17.3579 16.7032 17.3771 16.6012 17.3759C16.4991 17.3748 16.3983 17.3532 16.3047 17.3125C16.211 17.2718 16.1265 17.2128 16.056 17.139L12 13.083L7.94401 17.14C7.79929 17.2782 7.60625 17.3543 7.40616 17.352C7.20607 17.3497 7.01483 17.2692 6.87334 17.1277C6.73185 16.9862 6.65134 16.7949 6.64904 16.5948C6.64673 16.3948 6.72281 16.2017 6.86101 16.057L10.917 12L6.86001 7.944C6.72181 7.79929 6.64573 7.60624 6.64804 7.40615C6.65034 7.20607 6.73085 7.01483 6.87234 6.87334C7.01383 6.73184 7.20507 6.65134 7.40516 6.64903C7.60525 6.64673 7.79829 6.72281 7.94301 6.861L12 10.917L16.056 6.861C16.2007 6.72281 16.3938 6.64673 16.5939 6.64903C16.7939 6.65134 16.9852 6.73184 17.1267 6.87334C17.2682 7.01483 17.3487 7.20607 17.351 7.40615C17.3533 7.60624 17.2772 7.79929 17.139 7.944L13.083 12L17.139 16.056Z" fill="#4d4d4d"/>
</svg>