<svg width="22" height="20" viewBox="0 0 22 20" fill="none" xmlns="http://www.w3.org/2000/svg">
<path d="M10.375 4.5835H4.95837C4.6132 4.5835 4.33337 4.86332 4.33337 5.2085C4.33337 5.55367 4.6132 5.8335 4.95837 5.8335H10.375C10.7202 5.8335 11 5.55367 11 5.2085C11 4.86332 10.7202 4.5835 10.375 4.5835Z" fill="#777777"/>
<path d="M17.0417 9.375H4.95837C4.6132 9.375 4.33337 9.65482 4.33337 10C4.33337 10.3452 4.6132 10.625 4.95837 10.625H17.0417C17.3869 10.625 17.6667 10.3452 17.6667 10C17.6667 9.65482 17.3869 9.375 17.0417 9.375Z" fill="#777777"/>
<path d="M12.875 14.1665H4.95837C4.6132 14.1665 4.33337 14.4463 4.33337 14.7915C4.33337 15.1367 4.6132 15.4165 4.95837 15.4165H12.875C13.2202 15.4165 13.5 15.1367 13.5 14.7915C13.5 14.4463 13.2202 14.1665 12.875 14.1665Z" fill="#777777"/>
</svg>
