<svg width="18" height="18" viewBox="0 0 18 18" fill="none" xmlns="http://www.w3.org/2000/svg">
<mask id="mask0_278_14" style="mask-type:luminance" maskUnits="userSpaceOnUse" x="0" y="0" width="18" height="18">
<path d="M17.3333 0.666504H0.666626V17.3332H17.3333V0.666504Z" fill="white"/>
</mask>
<g mask="url(#mask0_278_14)">
<path d="M16.206 10.4619L16.7305 10.8018M16.206 10.4619C16.0595 10.6878 15.867 10.8958 15.3725 11.4213L11.8889 15.1226C11.3139 15.7335 11.0857 15.9714 10.8301 16.1491C10.4875 16.3873 10.1006 16.5544 9.69229 16.6407C9.38779 16.705 9.05813 16.7082 8.21921 16.7082C7.02092 16.7082 6.15418 16.7078 5.46923 16.6601C4.79007 16.6128 4.3364 16.5212 3.95908 16.3612C2.91381 15.9181 2.08173 15.086 1.63861 14.0408C1.47866 13.6634 1.38699 13.2098 1.33968 12.5306C1.29198 11.8456 1.29163 10.9788 1.29163 9.78059V8.6665C1.29163 7.25606 1.29211 6.23581 1.35767 5.43341C1.42263 4.6383 1.54837 4.11228 1.76848 3.6803C2.18792 2.85709 2.85721 2.1878 3.68042 1.76835C4.1124 1.54825 4.63842 1.42251 5.43353 1.35755C6.23593 1.29199 7.25618 1.2915 8.66663 1.2915H9.94688C11.0666 1.2915 11.8765 1.29181 12.5175 1.33358C13.1533 1.375 13.5794 1.45531 13.9351 1.5953C15.0653 2.03998 15.9598 2.93446 16.4045 4.06466C16.5445 4.42045 16.6248 4.84647 16.6662 5.48224C16.708 6.12328 16.7083 6.93319 16.7083 8.05292C16.7083 8.77442 16.706 9.05792 16.6577 9.32275C16.5838 9.72859 16.4302 10.1158 16.206 10.4619Z" stroke="#999999" stroke-width="1.25"/>
<path d="M9.83325 16.5V15.1487C9.83325 12.2131 12.213 9.83341 15.1486 9.8335H16.4999" stroke="#999999" stroke-width="1.25" stroke-linejoin="round"/>
<path d="M5.94956 8.505C4.56759 8.505 3.74988 7.69333 3.74988 6.24797C3.74988 4.82073 4.56759 4 5.91034 4C6.78237 4 7.44017 4.37416 7.69667 4.8328C7.76 4.95048 7.78417 5.05308 7.78417 5.1617C7.78417 5.48154 7.56084 5.70182 7.23498 5.70182C6.98453 5.70182 6.79444 5.60526 6.63753 5.39706C6.43234 5.12247 6.22414 5.00781 5.91637 5.00781C5.37324 5.00781 5.05339 5.45438 5.05339 6.22986C5.05339 7.02343 5.4185 7.49717 5.97974 7.49717C6.39614 7.49717 6.69184 7.26483 6.72805 6.91481L6.73409 6.85446H6.48364C6.19699 6.85446 6.00991 6.70359 6.00991 6.42901C6.00991 6.15443 6.19397 6.00355 6.48364 6.00355H7.32549C7.73284 6.00355 7.96517 6.24494 7.96517 6.67342C7.96517 7.70842 7.24704 8.505 5.94956 8.505Z" fill="#999999"/>
<path d="M9.43825 8.505C9.03092 8.505 8.79858 8.26358 8.79858 7.83508V4.66987C8.79858 4.24139 9.03092 4 9.43825 4C9.84558 4 10.078 4.24139 10.078 4.66987V7.83508C10.078 8.26358 9.84558 8.505 9.43825 8.505Z" fill="#999999"/>
<path d="M11.7593 8.46712C11.352 8.46712 11.1196 8.22571 11.1196 7.79729V4.70746C11.1196 4.27899 11.352 4.0376 11.7593 4.0376H13.6754C14.0193 4.0376 14.2396 4.22166 14.2396 4.54753C14.2396 4.87341 14.0133 5.05747 13.6754 5.05747H12.399V5.89028H13.5456C13.8655 5.89028 14.0706 6.06529 14.0706 6.37005C14.0706 6.6748 13.8715 6.84981 13.5456 6.84981H12.399V7.79729C12.399 8.22571 12.1666 8.46712 11.7593 8.46712Z" fill="#999999"/>
</g>
</svg>
