<svg width="19" height="19" viewBox="0 0 19 19" fill="none" xmlns="http://www.w3.org/2000/svg">
<path fill-rule="evenodd" clip-rule="evenodd" d="M1.16843 7.91325C0.876142 5.83349 0.73 4.79362 1.02311 3.94237C1.28093 3.19359 1.76918 2.54566 2.41789 2.09143C3.15537 1.57504 4.19525 1.42889 6.27501 1.1366L8.42063 0.835058C10.5004 0.542771 11.5402 0.396625 12.3915 0.689733C13.1402 0.947558 13.7882 1.43581 14.2424 2.08452C14.431 2.35378 14.5701 2.66338 14.6851 3.04918C14.2897 3.03842 13.8498 3.03493 13.3558 3.03379C13.3146 2.95092 13.2693 2.87401 13.2185 2.80148C12.9156 2.36902 12.4837 2.04352 11.9845 1.87163C11.417 1.67623 10.7238 1.77366 9.33729 1.96852L5.70628 2.47882C4.31977 2.67368 3.62652 2.77111 3.13486 3.11537C2.70239 3.41818 2.37689 3.85014 2.20501 4.34932C2.0096 4.91682 2.10703 5.61007 2.30189 6.99658L2.81219 10.6276C2.96328 11.7026 3.05578 12.3608 3.25017 12.8315C3.25073 13.5959 3.25428 14.2374 3.27672 14.7873C2.94913 14.5468 2.66082 14.253 2.4248 13.9159C1.90842 13.1785 1.76227 12.1386 1.46998 10.0588L1.16843 7.91325Z" fill="#777777"/>
<mask id="mask0_40_3656" style="mask-type:luminance" maskUnits="userSpaceOnUse" x="4" y="4" width="15" height="15">
<path d="M14.9167 4.28271H8.25C6.17893 4.28271 4.5 5.96165 4.5 8.03271V14.6994C4.5 16.7704 6.17893 18.4494 8.25 18.4494H14.9167C16.9877 18.4494 18.6667 16.7704 18.6667 14.6994V8.03271C18.6667 5.96165 16.9877 4.28271 14.9167 4.28271Z" fill="white"/>
</mask>
<g mask="url(#mask0_40_3656)">
<path d="M14.9167 4.90771H8.25C6.52411 4.90771 5.125 6.30682 5.125 8.03271V14.6994C5.125 16.4253 6.52411 17.8244 8.25 17.8244H14.9167C16.6426 17.8244 18.0417 16.4253 18.0417 14.6994V8.03271C18.0417 6.30682 16.6426 4.90771 14.9167 4.90771Z" stroke="#777777" stroke-width="1.25"/>
<path d="M5.04553 14.9078L6.65872 13.2947C7.13195 12.8214 7.89395 12.8048 8.38728 13.2571L9.92187 14.6638C10.2508 14.9653 10.7588 14.9543 11.0743 14.6388L14.3484 11.3647C14.8365 10.8765 15.628 10.8765 16.1162 11.3646L17.8886 13.137" stroke="#777777" stroke-width="1.25" stroke-linejoin="round"/>
<path d="M8.45841 9.28255C9.03371 9.28255 9.50008 8.81618 9.50008 8.24089C9.50008 7.66559 9.03371 7.19922 8.45841 7.19922C7.88312 7.19922 7.41675 7.66559 7.41675 8.24089C7.41675 8.81618 7.88312 9.28255 8.45841 9.28255Z" fill="#777777"/>
</g>
</svg>
