<svg width="18" height="17" viewBox="0 0 18 17" fill="none" xmlns="http://www.w3.org/2000/svg">
<g clip-path="url(#clip0_30_7555)">
<path d="M9.58968 0.724739V2.3533C9.58968 2.71779 9.27947 3.02799 8.90723 3.02799C8.54274 3.02799 8.23254 2.71779 8.23254 2.3533V0.724739C8.23254 0.360251 8.54274 0.0500488 8.90723 0.0500488C9.27947 0.0500488 9.58968 0.360251 9.58968 0.724739ZM12.7383 3.67941L13.9092 2.51615C14.1651 2.26024 14.5995 2.26024 14.8554 2.51615C15.119 2.77982 15.119 3.21411 14.8554 3.47778L13.6999 4.63328C13.4361 4.90471 13.0019 4.89696 12.7383 4.63328C12.4824 4.37737 12.4824 3.94309 12.7383 3.67941ZM4.11461 4.63328L2.95911 3.47003C2.71095 3.21411 2.71095 2.77207 2.96686 2.51615C3.23053 2.26024 3.67257 2.268 3.92074 2.51615L5.07624 3.67941C5.33216 3.93533 5.33216 4.38513 5.06848 4.63328C4.81256 4.89696 4.37829 4.89696 4.11461 4.63328ZM8.90723 4.50921C11.0631 4.50921 12.8545 6.30062 12.8545 8.46429C12.8545 10.628 11.0631 12.4271 8.90723 12.4271C6.74357 12.4271 4.95216 10.628 4.95216 8.46429C4.95216 6.30062 6.74357 4.50921 8.90723 4.50921ZM8.90723 5.69573C7.38724 5.69573 6.13092 6.95204 6.13092 8.46429C6.13092 9.97652 7.38724 11.2406 8.90723 11.2406C10.4194 11.2406 11.6757 9.97652 11.6757 8.46429C11.6757 6.95204 10.4194 5.69573 8.90723 5.69573ZM16.6235 9.13897H15.0027C14.6382 9.13897 14.328 8.82878 14.328 8.46429C14.328 8.0998 14.6382 7.78959 15.0027 7.78959H16.6235C16.9958 7.78959 17.3059 8.0998 17.3059 8.46429C17.3059 8.82878 16.9958 9.13897 16.6235 9.13897ZM1.19095 7.78959H2.81177C3.18401 7.78959 3.49421 8.0998 3.49421 8.46429C3.49421 8.82878 3.18401 9.13897 2.81177 9.13897H1.19095C0.826473 9.13897 0.516266 8.82878 0.516266 8.46429C0.516266 8.0998 0.826473 7.78959 1.19095 7.78959ZM13.6921 12.303L14.8554 13.4585C15.119 13.7222 15.119 14.1565 14.8554 14.4124C14.5995 14.6683 14.1651 14.6761 13.9092 14.4201L12.7383 13.2569C12.4824 12.9933 12.4824 12.5589 12.7383 12.303C13.0019 12.0471 13.4361 12.0471 13.6921 12.303ZM2.95911 13.4508L4.11461 12.303C4.37829 12.0471 4.82032 12.0471 5.07624 12.303C5.33216 12.5667 5.33216 13.001 5.06848 13.2569L3.91298 14.4124C3.64931 14.6683 3.20727 14.6606 2.95135 14.4047C2.7032 14.1488 2.7032 13.7067 2.95911 13.4508ZM9.58968 14.5753V16.2038C9.58968 16.5683 9.27947 16.8785 8.90723 16.8785C8.54274 16.8785 8.23254 16.5683 8.23254 16.2038V14.5753C8.23254 14.2108 8.54274 13.9006 8.90723 13.9006C9.27947 13.9006 9.58968 14.2108 9.58968 14.5753Z" fill="#f3f5f7"/>
</g>
<defs>
<clipPath id="clip0_30_7555">
<rect width="16.7897" height="16.8285" fill="white" transform="translate(0.516266 0.0500488)"/>
</clipPath>
</defs>
</svg>