<svg width="17" height="18" viewBox="0 0 17 18" fill="none" xmlns="http://www.w3.org/2000/svg">
<path d="M13.2332 11.5456C14.222 11.5456 15.2272 11.3642 15.8946 11.0923C16.0924 11.0182 16.1913 11.01 16.3232 11.01C16.5785 11.01 16.867 11.2407 16.867 11.5785C16.867 11.6691 16.8504 11.8504 16.7516 12.0646C15.4167 15.1464 12.5082 17.025 8.92383 17.025C3.92231 17.025 0.288574 13.383 0.288574 8.38147C0.288574 4.92078 2.4309 1.70727 5.47961 0.471315C5.71032 0.380677 5.86688 0.355957 5.93281 0.355957C6.27887 0.355957 6.5343 0.677302 6.5343 0.949215C6.5343 1.11402 6.50958 1.22937 6.38599 1.46832C6.08111 2.06158 5.87513 3.16571 5.87513 4.41815C5.87513 8.80994 8.69312 11.5456 13.2332 11.5456ZM1.58222 8.32379C1.58222 12.6249 4.69683 15.7396 8.97326 15.7396C11.6265 15.7396 14.0408 14.4789 15.2931 12.4107C14.6092 12.6496 13.8924 12.7485 13.0437 12.7485C7.78675 12.7485 4.6474 9.68335 4.6474 4.53351C4.6474 3.59418 4.78748 2.74548 5.05114 1.97919C2.91705 3.32227 1.58222 5.76123 1.58222 8.32379Z" fill="#999999"/>
</svg>