<svg width="13" height="12" viewBox="0 0 13 12" fill="none" xmlns="http://www.w3.org/2000/svg">
<path fill-rule="evenodd" clip-rule="evenodd" d="M2.2793 7.25C1.94778 7.25 1.62983 7.1183 1.39541 6.88388C1.16099 6.64946 1.0293 6.33152 1.0293 6C1.0293 5.66848 1.16099 5.35054 1.39541 5.11612C1.62983 4.8817 1.94778 4.75 2.2793 4.75C2.61082 4.75 2.92876 4.8817 3.16318 5.11612C3.3976 5.35054 3.5293 5.66848 3.5293 6C3.5293 6.33152 3.3976 6.64946 3.16318 6.88388C2.92876 7.1183 2.61082 7.25 2.2793 7.25ZM6.2793 7.25C5.94778 7.25 5.62983 7.1183 5.39541 6.88388C5.16099 6.64946 5.0293 6.33152 5.0293 6C5.0293 5.66848 5.16099 5.35054 5.39541 5.11612C5.62983 4.8817 5.94778 4.75 6.2793 4.75C6.61082 4.75 6.92876 4.8817 7.16318 5.11612C7.3976 5.35054 7.5293 5.66848 7.5293 6C7.5293 6.33152 7.3976 6.64946 7.16318 6.88388C6.92876 7.1183 6.61082 7.25 6.2793 7.25ZM10.2793 7.25C9.94778 7.25 9.62983 7.1183 9.39541 6.88388C9.16099 6.64946 9.0293 6.33152 9.0293 6C9.0293 5.66848 9.16099 5.35054 9.39541 5.11612C9.62983 4.8817 9.94778 4.75 10.2793 4.75C10.6108 4.75 10.9288 4.8817 11.1632 5.11612C11.3976 5.35054 11.5293 5.66848 11.5293 6C11.5293 6.33152 11.3976 6.64946 11.1632 6.88388C10.9288 7.1183 10.6108 7.25 10.2793 7.25Z" fill="#F3F5F7"/>
</svg>