<svg width="24" height="24" viewBox="0 0 24 24" fill="none" xmlns="http://www.w3.org/2000/svg">
<path d="M2.07715 11.8943V19.1535C2.07715 20.1732 2.9037 20.9997 3.9233 20.9997H7.61561C7.87051 20.9997 8.07715 20.7931 8.07715 20.5381V16.322V16.1535C8.07715 13.9869 9.83358 12.2304 12.0002 12.2304C14.1669 12.2304 15.9233 13.9869 15.9233 16.1535V16.322V20.5381C15.9233 20.7931 16.13 20.9997 16.3848 20.9997H20.0771C21.0968 20.9997 21.9233 20.1732 21.9233 19.1535V11.8943C21.9233 10.5013 21.2942 9.18286 20.2114 8.30657L14.9037 4.01109C13.2106 2.64083 10.7899 2.64083 9.09673 4.01109L3.78904 8.30657C2.70625 9.18286 2.07715 10.5013 2.07715 11.8943Z" fill="black" stroke="black" stroke-width="2.5" stroke-linecap="round"/>
</svg>