<svg width="21" height="21" viewBox="0 0 21 21" fill="none" xmlns="http://www.w3.org/2000/svg">
<path d="M10.9316 11.7075C11.622 11.7075 12.1816 11.1479 12.1816 10.4575C12.1816 9.76716 11.622 9.20752 10.9316 9.20752C10.2413 9.20752 9.68164 9.76716 9.68164 10.4575C9.68164 11.1479 10.2413 11.7075 10.9316 11.7075Z" fill="#999999"/>
<path d="M5.93164 11.7075C6.622 11.7075 7.18164 11.1479 7.18164 10.4575C7.18164 9.76716 6.622 9.20752 5.93164 9.20752C5.24128 9.20752 4.68164 9.76716 4.68164 10.4575C4.68164 11.1479 5.24128 11.7075 5.93164 11.7075Z" fill="#999999"/>
<path d="M15.9316 11.7075C16.622 11.7075 17.1816 11.1479 17.1816 10.4575C17.1816 9.76716 16.622 9.20752 15.9316 9.20752C15.2413 9.20752 14.6816 9.76716 14.6816 10.4575C14.6816 11.1479 15.2413 11.7075 15.9316 11.7075Z" fill="#999999"/>
</svg>
