<svg width="11" height="11" viewBox="0 0 11 11" fill="none" xmlns="http://www.w3.org/2000/svg">
<path d="M5.7168 9.66895C5.36523 9.66895 5.07227 9.36621 5.07227 9.03418V6.12891H2.22559C1.89356 6.12891 1.58594 5.83594 1.58594 5.47949C1.58594 5.12793 1.89356 4.83008 2.22559 4.83008H5.07227V1.92481C5.07227 1.58301 5.36523 1.29004 5.7168 1.29004C6.07324 1.29004 6.36621 1.58301 6.36621 1.92481V4.83008H9.21289C9.55469 4.83008 9.85254 5.12793 9.85254 5.47949C9.85254 5.83594 9.55469 6.12891 9.21289 6.12891H6.36621V9.03418C6.36621 9.36621 6.07324 9.66895 5.7168 9.66895Z" fill="#101010"/>
</svg>