<svg width="21" height="21" viewBox="0 0 21 21" fill="none" xmlns="http://www.w3.org/2000/svg">
<path d="M10.9102 11.75C11.6005 11.75 12.1602 11.1904 12.1602 10.5C12.1602 9.80964 11.6005 9.25 10.9102 9.25C10.2198 9.25 9.66016 9.80964 9.66016 10.5C9.66016 11.1904 10.2198 11.75 10.9102 11.75Z" fill="#777777"/>
<path d="M5.91016 11.75C6.60051 11.75 7.16016 11.1904 7.16016 10.5C7.16016 9.80964 6.60051 9.25 5.91016 9.25C5.2198 9.25 4.66016 9.80964 4.66016 10.5C4.66016 11.1904 5.2198 11.75 5.91016 11.75Z" fill="#777777"/>
<path d="M15.9102 11.75C16.6005 11.75 17.1602 11.1904 17.1602 10.5C17.1602 9.80964 16.6005 9.25 15.9102 9.25C15.2198 9.25 14.6602 9.80964 14.6602 10.5C14.6602 11.1904 15.2198 11.75 15.9102 11.75Z" fill="#777777"/>
</svg>