<svg width="26" height="26" viewBox="0 0 26 26" fill="none" xmlns="http://www.w3.org/2000/svg">
<path d="M2.25 12.8854V20.7496C2.25 21.8542 3.14543 22.7496 4.25 22.7496H9.25C9.52614 22.7496 9.75 22.5257 9.75 22.2496V17.6821V16.4996C9.75 14.7047 11.2051 13.2496 13 13.2496C14.7949 13.2496 16.25 14.7047 16.25 16.4996V17.6821V22.2496C16.25 22.5257 16.4739 22.7496 16.75 22.7496H21.75C22.8546 22.7496 23.75 21.8542 23.75 20.7496V12.8854C23.75 11.3764 23.0685 9.94802 21.8954 8.9987L16.1454 4.34527C14.3112 2.86082 11.6888 2.86082 9.85455 4.34527L4.10455 8.9987C2.93153 9.94802 2.25 11.3764 2.25 12.8854Z" stroke="#4d4d4d" stroke-width="2.5" stroke-linecap="round"/>
</svg>
