<svg width="11" height="11" viewBox="0 0 11 11" fill="none" xmlns="http://www.w3.org/2000/svg">
<path d="M5.92774 9.62647C5.57617 9.62647 5.28321 9.32373 5.28321 8.9917V6.08643H2.43653C2.1045 6.08643 1.79688 5.79346 1.79688 5.43701C1.79688 5.08545 2.1045 4.7876 2.43653 4.7876H5.28321V1.88232C5.28321 1.54053 5.57617 1.24756 5.92774 1.24756C6.28418 1.24756 6.57715 1.54053 6.57715 1.88232V4.7876H9.42383C9.76563 4.7876 10.0635 5.08545 10.0635 5.43701C10.0635 5.79346 9.76563 6.08643 9.42383 6.08643H6.57715V8.9917C6.57715 9.32373 6.28418 9.62647 5.92774 9.62647Z" fill="white"/>
</svg>