<svg width="61" height="61" viewBox="0 0 61 61" fill="none" xmlns="http://www.w3.org/2000/svg">
<g clip-path="url(#clip0_263_4)">
<path d="M44.4364 27.8303C44.1779 27.7065 43.9154 27.5872 43.6495 27.4731C43.1864 18.9397 38.5236 14.0543 30.6941 14.0043C30.6587 14.0041 30.6234 14.0041 30.5879 14.0041C25.9049 14.0041 22.0101 16.003 19.6129 19.6405L23.9189 22.5942C25.7097 19.8772 28.5202 19.298 30.59 19.298C30.6139 19.298 30.6379 19.298 30.6616 19.2982C33.2395 19.3146 35.1848 20.0642 36.4439 21.5259C37.3601 22.59 37.9729 24.0605 38.2764 25.9164C35.9907 25.528 33.5189 25.4085 30.8764 25.56C23.4325 25.9888 18.647 30.3302 18.9684 36.3627C19.1315 39.4227 20.656 42.0552 23.2607 43.7749C25.4631 45.2287 28.2995 45.9396 31.2474 45.7787C35.1404 45.5652 38.1945 44.0799 40.3251 41.364C41.9432 39.3015 42.9667 36.6287 43.4186 33.2609C45.2739 34.3805 46.6489 35.854 47.4082 37.6252C48.6995 40.6362 48.7748 45.584 44.7376 49.6177C41.2004 53.1515 36.9486 54.6802 30.5228 54.7274C23.3949 54.6746 18.0041 52.3887 14.4992 47.933C11.2171 43.7609 9.52096 37.7346 9.45768 30.0215C9.52096 22.3083 11.2171 16.282 14.4992 12.1098C18.0041 7.65427 23.3948 5.36836 30.5227 5.31539C37.7023 5.36877 43.187 7.66567 46.8261 12.1427C48.6104 14.3382 49.9557 17.0992 50.8426 20.3185L55.8886 18.9722C54.8136 15.0097 53.122 11.5951 50.8201 8.76336C46.1548 3.02357 39.3317 0.0824681 30.5403 0.0214844H30.5051C21.7316 0.0822563 14.9848 3.03455 10.4524 8.79627C6.41915 13.9235 4.33868 21.0576 4.26877 30.0004L4.26855 30.0215L4.26877 30.0426C4.33868 38.9852 6.41915 46.1196 10.4524 51.2468C14.9848 57.0084 21.7316 59.9609 30.5051 60.0215H30.5403C38.3404 59.9674 43.8386 57.9252 48.3679 53.3999C54.2939 47.4796 54.1154 40.0587 52.1623 35.503C50.7611 32.2362 48.0895 29.5828 44.4364 27.8303ZM30.9687 40.4924C27.7062 40.6762 24.3168 39.2118 24.1497 36.0752C24.0258 33.7496 25.8047 31.1546 31.1689 30.8455C31.7832 30.81 32.3861 30.7927 32.9782 30.7927C34.9267 30.7927 36.7495 30.982 38.4067 31.3443C37.7886 39.0637 34.1629 40.3171 30.9687 40.4924Z" fill="black"/>
</g>
<defs>
<clipPath id="clip0_263_4">
<rect width="60" height="60" fill="white" transform="translate(0.206055 0.0214844)"/>
</clipPath>
</defs>
</svg>
