<svg width="20" height="20" viewBox="0 0 20 20" fill="none" xmlns="http://www.w3.org/2000/svg">
<path d="M10 8.25C12.0711 8.25 13.75 6.57107 13.75 4.5C13.75 2.42893 12.0711 0.75 10 0.75C7.92893 0.75 6.25 2.42893 6.25 4.5C6.25 6.57107 7.92893 8.25 10 8.25Z" stroke="#f3f5f7" stroke-width="1.5"/>
<path d="M10 12C10 12.4142 10.3358 12.75 10.75 12.75H12.75C13.4705 12.75 13.7581 12.7516 13.9895 12.7821C15.6722 13.0036 16.9964 14.3278 17.2179 16.0105C17.2484 16.2419 17.25 16.5295 17.25 17.25C17.25 17.5061 17.2484 17.5614 17.2436 17.5979C17.1993 17.9345 16.9344 18.1993 16.5979 18.2436C16.5614 18.2484 16.506 18.25 16.25 18.25H12.75C12.3358 18.25 12 18.5858 12 19C12 19.4142 12.3358 19.75 12.75 19.75H16.25H16.2919C16.4823 19.7501 16.6459 19.7502 16.7937 19.7308C17.8033 19.5978 18.5978 18.8033 18.7308 17.7937C18.7502 17.646 18.7501 17.4823 18.75 17.292V17.25V17.1844C18.7501 16.5504 18.7501 16.1566 18.7051 15.8147C18.3949 13.4589 16.5411 11.6051 14.1853 11.2949C13.8435 11.2499 13.4497 11.25 12.8156 11.25H12.75H10.75C10.3358 11.25 10 11.5858 10 12Z" fill="#f3f5f7"/>
<path d="M4.68804 10.3197C5.3919 10.0925 5.96601 10.8416 5.63533 11.4569C5.53894 11.6362 5.44363 11.7864 5.36703 11.9072L5.36369 11.9124C5.2825 12.0404 5.22882 12.126 5.18441 12.2126C4.91328 12.7417 4.9498 13.4643 5.27526 14.094C5.60033 14.7228 6.12707 15.1016 6.67108 15.1232C7.32542 15.1492 7.99995 14.8927 8.398 14.5588C8.73234 14.2784 9.14047 14.3541 9.37442 14.5182C9.60597 14.6807 9.80921 15.0264 9.67821 15.4265C9.11596 17.1436 8.1723 18.1813 7.04018 18.6508C5.92916 19.1116 4.76743 18.9704 3.85461 18.5991C2.19732 17.925 1.09735 16.1155 1.26727 14.3326C1.45479 12.3652 3.07545 10.8403 4.68804 10.3197ZM4.68804 10.3197L4.91845 11.0334" stroke="#f3f5f7" stroke-width="1.5"/>
</svg>
