<svg width="27" height="27" viewBox="0 0 27 27" fill="none" xmlns="http://www.w3.org/2000/svg">
<path d="M13.0373 26.1961C12.9593 26.1961 12.8575 26.104 12.7307 25.9209C12.5788 25.699 12.4509 25.4615 12.3494 25.2124C12.2142 24.8981 12.108 24.5721 12.032 24.2385C11.949 23.8922 11.9065 23.5373 11.9052 23.1812V17.1405H14.1586V23.1812C14.1586 23.5268 14.1163 23.8788 14.0318 24.2385C13.9558 24.5721 13.8496 24.8981 13.7144 25.2124C13.6129 25.4615 13.485 25.699 13.3331 25.9209C13.2139 26.1051 13.1153 26.1961 13.0373 26.1961ZM6.29899 18.1448C5.77683 18.1448 5.35649 17.9931 5.03908 17.6898C4.72924 17.3799 4.57324 16.9748 4.57324 16.4732C4.57324 15.6628 4.78991 14.872 5.21891 14.1039C5.64899 13.3348 6.24483 12.6468 7.00641 12.0402C7.81474 11.4124 8.72349 10.926 9.69416 10.6015C10.7233 10.2418 11.8392 10.062 13.0373 10.062C14.2366 10.062 15.347 10.2418 16.3697 10.6015C17.34 10.9264 18.2484 11.4132 19.0563 12.0413C19.8255 12.6479 20.4213 13.3348 20.8449 14.1039C21.275 14.8731 21.4906 15.6628 21.4906 16.4732C21.4906 16.9748 21.3357 17.3799 21.0247 17.6898C20.7149 17.9931 20.2989 18.1448 19.7767 18.1448H6.29791H6.29899ZM6.82766 16.2088H19.2372C19.4344 16.2088 19.5157 16.0962 19.4799 15.8708C19.4171 15.405 19.2156 14.9392 18.8776 14.4733C18.5385 14.0075 18.0867 13.585 17.5234 13.2048C16.9099 12.8007 16.2395 12.4903 15.5344 12.2839C14.7242 12.0433 13.8825 11.9257 13.0373 11.9351C12.189 11.9263 11.3442 12.0439 10.5305 12.2839C9.82896 12.4916 9.16199 12.8019 8.55124 13.2048C7.98791 13.585 7.53616 14.0086 7.19708 14.4744C6.85908 14.9403 6.65541 15.405 6.58391 15.8708C6.54816 16.0962 6.62941 16.2088 6.82766 16.2088ZM5.91766 2.03235C5.91766 1.66618 6.04441 1.36285 6.29791 1.12235C6.55899 0.875346 6.89808 0.75293 7.31408 0.75293H18.7606C19.1766 0.75293 19.5124 0.875346 19.7659 1.12235C20.0259 1.36285 20.157 1.66618 20.157 2.03235C20.157 2.41368 20.0097 2.79068 19.7128 3.16443C19.4878 3.44859 19.2365 3.71085 18.9621 3.94768C18.6447 4.22935 18.2774 4.52618 17.8614 4.83601C17.4454 5.14693 17.0121 5.45676 16.5603 5.76768L16.9514 11.6285H14.9202L14.5291 4.86851C14.515 4.68435 14.5746 4.56085 14.7089 4.49801C15.0339 4.32143 15.3405 4.14485 15.6297 3.96826C15.9255 3.79276 16.1866 3.62701 16.4119 3.47101C16.6383 3.3161 16.8247 3.17851 16.9731 3.05935C17.1215 2.93151 17.2222 2.84051 17.2797 2.78418C17.3295 2.72676 17.3392 2.67801 17.3122 2.63576C17.2905 2.59243 17.2515 2.57185 17.1952 2.57185H8.86866C8.84544 2.57148 8.82253 2.57718 8.8022 2.58839C8.78187 2.5996 8.76482 2.61593 8.75274 2.63576C8.73108 2.67801 8.74191 2.72676 8.78524 2.78418C8.84049 2.84051 8.94341 2.93151 9.09074 3.05826C9.24674 3.17851 9.43741 3.3161 9.66274 3.47101C9.89566 3.62701 10.1524 3.79276 10.4352 3.96935C10.7244 4.14485 11.0342 4.32143 11.3657 4.49801C11.5001 4.56085 11.5629 4.68435 11.5564 4.86743L11.1545 11.6274H9.11241L9.51433 5.7666C9.07036 5.46642 8.6333 5.15614 8.20349 4.83601C7.82651 4.55218 7.45906 4.2559 7.10174 3.94768C6.83224 3.70918 6.58461 3.44705 6.36183 3.16443C6.06499 2.79068 5.91766 2.41368 5.91766 2.03235Z" fill="#4d4d4d"/>
</svg>
