<svg width="24" height="24" viewBox="0 0 24 24" fill="none" xmlns="http://www.w3.org/2000/svg">
<path d="M18.002 1H6.00195C4.67636 1.00159 3.40551 1.52888 2.46817 2.46622C1.53083 3.40356 1.00354 4.6744 1.00195 6V15.005C1.00354 16.3306 1.53083 17.6014 2.46817 18.5388C3.40551 19.4761 4.67636 20.0034 6.00195 20.005H8.51595L11.305 22.717C11.4916 22.8984 11.7417 22.9999 12.002 22.9999C12.2623 22.9999 12.5123 22.8984 12.699 22.717L15.486 20.005H18.002C19.3275 20.0034 20.5984 19.4761 21.5357 18.5388C22.4731 17.6014 23.0004 16.3306 23.002 15.005V6C23.0004 4.6744 22.4731 3.40356 21.5357 2.46622C20.5984 1.52888 19.3275 1.00159 18.002 1ZM21.002 15.005C21.0012 15.8004 20.6848 16.563 20.1224 17.1254C19.56 17.6879 18.7974 18.0042 18.002 18.005H15.066C14.9135 18.005 14.763 18.0399 14.6261 18.107C14.4892 18.174 14.3694 18.2715 14.276 18.392L12.002 20.604L9.72595 18.392C9.63249 18.2715 9.51272 18.174 9.37579 18.107C9.23887 18.0399 9.08842 18.005 8.93595 18.005H6.00095C5.20555 18.0042 4.44295 17.6879 3.88051 17.1254C3.31807 16.563 3.00175 15.8004 3.00095 15.005V6C3.00175 5.20459 3.31807 4.44199 3.88051 3.87956C4.44295 3.31712 5.20555 3.00079 6.00095 3H18.001C18.7964 3.00079 19.559 3.31712 20.1214 3.87956C20.6838 4.44199 21.0002 5.20459 21.001 6L21.002 15.005ZM12.002 13.345C11.7588 13.3448 11.521 13.4167 11.3188 13.5517C11.1165 13.6867 10.9588 13.8786 10.8657 14.1032C10.7726 14.3278 10.7481 14.575 10.7955 14.8135C10.8429 15.052 10.96 15.2711 11.1319 15.443C11.3039 15.615 11.5229 15.732 11.7614 15.7794C11.9999 15.8268 12.2471 15.8024 12.4717 15.7093C12.6963 15.6161 12.8883 15.4584 13.0232 15.2562C13.1582 15.0539 13.2302 14.8162 13.23 14.573C13.2297 14.2471 13.1001 13.9347 12.8697 13.7043C12.6393 13.4738 12.3268 13.3443 12.001 13.344L12.002 13.345ZM12.002 5.228C11.8276 5.22666 11.6549 5.26111 11.4944 5.32922C11.3339 5.39734 11.1891 5.49767 11.069 5.624C10.9637 5.73535 10.8827 5.86731 10.8311 6.01155C10.7795 6.15579 10.7583 6.30917 10.769 6.462L11.116 11.323C11.1431 11.5386 11.248 11.7368 11.411 11.8805C11.5739 12.0242 11.7837 12.1035 12.001 12.1035C12.2182 12.1035 12.428 12.0242 12.5909 11.8805C12.7539 11.7368 12.8588 11.5386 12.886 11.323L13.234 6.463C13.2447 6.31016 13.2236 6.15675 13.172 6.01249C13.1203 5.86823 13.0393 5.73628 12.934 5.625C12.814 5.49839 12.6692 5.39781 12.5087 5.32952C12.3482 5.26122 12.1754 5.22667 12.001 5.228H12.002Z" fill="#FF3040"/>
</svg>