<svg width="25" height="25" viewBox="0 0 25 25" fill="none" xmlns="http://www.w3.org/2000/svg">
<path d="M12.3164 22.7808C17.8393 22.7808 22.3164 18.3036 22.3164 12.7808C22.3164 7.25791 17.8393 2.78076 12.3164 2.78076C6.79356 2.78076 2.31641 7.25791 2.31641 12.7808C2.31641 18.3036 6.79356 22.7808 12.3164 22.7808Z" stroke="#F3F5F7" stroke-width="2"/>
<path fill-rule="evenodd" clip-rule="evenodd" d="M7.81641 14.2808C6.98798 14.2808 6.31641 13.6092 6.31641 12.7808C6.31641 11.9524 6.98798 11.2808 7.81641 11.2808C8.64484 11.2808 9.31641 11.9524 9.31641 12.7808C9.31641 13.6092 8.64484 14.2808 7.81641 14.2808Z" fill="#F3F5F7"/>
<path fill-rule="evenodd" clip-rule="evenodd" d="M12.3164 14.2808C11.488 14.2808 10.8164 13.6092 10.8164 12.7808C10.8164 11.9524 11.488 11.2808 12.3164 11.2808C13.1448 11.2808 13.8164 11.9524 13.8164 12.7808C13.8164 13.6092 13.1448 14.2808 12.3164 14.2808Z" fill="#F3F5F7"/>
<path fill-rule="evenodd" clip-rule="evenodd" d="M16.5 14C15.6716 14 15 13.3284 15 12.5C15 11.6716 15.6716 11 16.5 11C17.3284 11 18 11.6716 18 12.5C18 13.3284 17.3284 14 16.5 14Z" fill="#F3F5F7"/>
</svg>