<svg width="25" height="25" viewBox="0 0 25 25" fill="none" xmlns="http://www.w3.org/2000/svg">
<path d="M12.707 3.76276C15.644 3.76276 15.992 3.77376 17.152 3.82676C17.8494 3.83518 18.5401 3.96338 19.194 4.20576C19.6719 4.38211 20.1042 4.66334 20.459 5.02876C20.8245 5.38363 21.1057 5.81589 21.282 6.29376C21.5244 6.94769 21.6526 7.63841 21.661 8.33576C21.714 9.49576 21.725 9.84376 21.725 12.7808C21.725 15.7178 21.714 16.0658 21.661 17.2258C21.6526 17.9231 21.5244 18.6138 21.282 19.2678C21.099 19.7423 20.8187 20.1732 20.4591 20.5328C20.0995 20.8924 19.6685 21.1728 19.194 21.3558C18.5401 21.5981 17.8494 21.7263 17.152 21.7348C15.992 21.7878 15.644 21.7988 12.707 21.7988C9.77003 21.7988 9.42203 21.7878 8.26203 21.7348C7.56434 21.7265 6.87328 21.5983 6.21903 21.3558C5.74152 21.1793 5.30961 20.8981 4.95503 20.5328C4.58961 20.1779 4.30838 19.7456 4.13203 19.2678C3.88965 18.6138 3.76145 17.9231 3.75303 17.2258C3.70003 16.0658 3.68903 15.7178 3.68903 12.7808C3.68903 9.84376 3.70003 9.49576 3.75303 8.33576C3.76145 7.63841 3.88965 6.94769 4.13203 6.29376C4.30838 5.81589 4.58961 5.38363 4.95503 5.02876C5.3099 4.66334 5.74216 4.38211 6.22003 4.20576C6.87396 3.96338 7.56468 3.83518 8.26203 3.82676C9.42203 3.77376 9.77003 3.76276 12.707 3.76276ZM12.707 1.78076C9.72003 1.78076 9.34503 1.79376 8.17203 1.84676C7.25955 1.86497 6.35675 2.03775 5.50203 2.35776C4.7677 2.63424 4.10255 3.06766 3.55303 3.62776C2.99341 4.17709 2.56035 4.84188 2.28403 5.57576C1.96436 6.43054 1.79191 7.33333 1.77403 8.24576C1.71903 9.41876 1.70703 9.79376 1.70703 12.7808C1.70703 15.7678 1.72003 16.1428 1.77303 17.3158C1.79124 18.2282 1.96402 19.131 2.28403 19.9858C2.56051 20.7201 2.99393 21.3852 3.55403 21.9348C4.10336 22.4944 4.76815 22.9274 5.50203 23.2038C6.35681 23.5234 7.2596 23.6959 8.17203 23.7138C9.34503 23.7688 9.72003 23.7808 12.707 23.7808C15.694 23.7808 16.069 23.7678 17.242 23.7148C18.1545 23.6966 19.0573 23.5238 19.912 23.2038C20.643 22.9211 21.3068 22.4889 21.861 21.9347C22.4152 21.3806 22.8474 20.7167 23.13 19.9858C23.4497 19.131 23.6221 18.2282 23.64 17.3158C23.695 16.1428 23.707 15.7678 23.707 12.7808C23.707 9.79376 23.694 9.41876 23.641 8.24576C23.6228 7.33328 23.45 6.43048 23.13 5.57576C22.8536 4.84143 22.4201 4.17628 21.86 3.62676C21.3107 3.06714 20.6459 2.63408 19.912 2.35776C19.0572 2.03809 18.1545 1.86565 17.242 1.84776C16.069 1.79276 15.694 1.78076 12.707 1.78076ZM12.707 7.13176C11.5898 7.13176 10.4976 7.46307 9.56861 8.08379C8.63964 8.70451 7.9156 9.58676 7.48804 10.619C7.06048 11.6512 6.94861 12.787 7.16658 13.8828C7.38454 14.9786 7.92256 15.9852 8.71259 16.7752C9.50261 17.5652 10.5092 18.1033 11.605 18.3212C12.7008 18.5392 13.8366 18.4273 14.8688 17.9998C15.901 17.5722 16.7833 16.8482 17.404 15.9192C18.0247 14.9902 18.356 13.898 18.356 12.7808C18.356 11.2826 17.7609 9.84571 16.7015 8.78632C15.6421 7.72692 14.2052 7.13176 12.707 7.13176ZM12.707 16.4478C11.9818 16.4478 11.2728 16.2327 10.6698 15.8298C10.0667 15.4268 9.59671 14.8541 9.31917 14.1841C9.04162 13.514 8.969 12.7767 9.11049 12.0654C9.25198 11.354 9.60123 10.7006 10.1141 10.1878C10.6269 9.67496 11.2803 9.32571 11.9916 9.18422C12.703 9.04273 13.4403 9.11535 14.1103 9.3929C14.7804 9.67044 15.3531 10.1405 15.756 10.7435C16.159 11.3465 16.374 12.0555 16.374 12.7808C16.374 13.7533 15.9877 14.686 15.3 15.3737C14.6123 16.0614 13.6796 16.4478 12.707 16.4478ZM18.579 5.58876C18.318 5.58876 18.0628 5.66618 17.8457 5.81122C17.6286 5.95626 17.4594 6.16242 17.3595 6.40362C17.2596 6.64482 17.2335 6.91023 17.2844 7.16628C17.3353 7.42234 17.461 7.65754 17.6457 7.84214C17.8303 8.02675 18.0655 8.15247 18.3215 8.2034C18.5776 8.25433 18.843 8.22819 19.0842 8.12828C19.3254 8.02837 19.5315 7.85919 19.6766 7.64211C19.8216 7.42504 19.899 7.16983 19.899 6.90876C19.899 6.55868 19.76 6.22293 19.5124 5.97538C19.2649 5.72783 18.9291 5.58876 18.579 5.58876Z" fill="#F3F5F7"/>
</svg>