<svg width="25" height="24" viewBox="0 0 25 24" fill="none" xmlns="http://www.w3.org/2000/svg">
<path d="M12.5 2.982C15.437 2.982 15.785 2.993 16.945 3.046C17.6424 3.05442 18.3331 3.18262 18.987 3.425C19.4649 3.60135 19.8971 3.88258 20.252 4.248C20.6174 4.60286 20.8987 5.03513 21.075 5.513C21.3174 6.16693 21.4456 6.85765 21.454 7.555C21.507 8.715 21.518 9.063 21.518 12C21.518 14.937 21.507 15.285 21.454 16.445C21.4456 17.1424 21.3174 17.8331 21.075 18.487C20.892 18.9615 20.6117 19.3924 20.252 19.752C19.8924 20.1117 19.4615 20.392 18.987 20.575C18.3331 20.8174 17.6424 20.9456 16.945 20.954C15.785 21.007 15.437 21.018 12.5 21.018C9.563 21.018 9.215 21.007 8.055 20.954C7.35731 20.9457 6.66624 20.8175 6.012 20.575C5.53449 20.3985 5.10258 20.1173 4.748 19.752C4.38258 19.3971 4.10135 18.9649 3.925 18.487C3.68262 17.8331 3.55442 17.1424 3.546 16.445C3.493 15.285 3.482 14.937 3.482 12C3.482 9.063 3.493 8.715 3.546 7.555C3.55442 6.85765 3.68262 6.16693 3.925 5.513C4.10135 5.03513 4.38258 4.60286 4.748 4.248C5.10286 3.88258 5.53513 3.60135 6.013 3.425C6.66693 3.18262 7.35765 3.05442 8.055 3.046C9.215 2.993 9.563 2.982 12.5 2.982ZM12.5 1C9.513 1 9.138 1.013 7.965 1.066C7.05252 1.0842 6.14972 1.25699 5.295 1.577C4.56067 1.85348 3.89552 2.2869 3.346 2.847C2.78638 3.39633 2.35331 4.06111 2.077 4.795C1.75733 5.64978 1.58488 6.55257 1.567 7.465C1.512 8.638 1.5 9.013 1.5 12C1.5 14.987 1.513 15.362 1.566 16.535C1.5842 17.4475 1.75699 18.3503 2.077 19.205C2.35348 19.9393 2.7869 20.6045 3.347 21.154C3.89633 21.7136 4.56111 22.1467 5.295 22.423C6.14978 22.7427 7.05257 22.9151 7.965 22.933C9.138 22.988 9.513 23 12.5 23C15.487 23 15.862 22.987 17.035 22.934C17.9475 22.9158 18.8503 22.743 19.705 22.423C20.436 22.1404 21.0998 21.7081 21.654 21.154C22.2081 20.5998 22.6404 19.936 22.923 19.205C23.2427 18.3502 23.4151 17.4474 23.433 16.535C23.488 15.362 23.5 14.987 23.5 12C23.5 9.013 23.487 8.638 23.434 7.465C23.4158 6.55252 23.243 5.64972 22.923 4.795C22.6465 4.06067 22.2131 3.39552 21.653 2.846C21.1037 2.28638 20.4389 1.85331 19.705 1.577C18.8502 1.25733 17.9474 1.08488 17.035 1.067C15.862 1.012 15.487 1 12.5 1ZM12.5 6.351C11.3827 6.351 10.2906 6.68231 9.36158 7.30303C8.43261 7.92375 7.70856 8.806 7.281 9.83822C6.85345 10.8704 6.74158 12.0063 6.95954 13.1021C7.17751 14.1979 7.71553 15.2044 8.50555 15.9944C9.29558 16.7845 10.3021 17.3225 11.3979 17.5405C12.4937 17.7584 13.6296 17.6466 14.6618 17.219C15.694 16.7914 16.5763 16.0674 17.197 15.1384C17.8177 14.2094 18.149 13.1173 18.149 12C18.149 10.5018 17.5538 9.06495 16.4944 8.00555C15.4351 6.94616 13.9982 6.351 12.5 6.351ZM12.5 15.667C11.7747 15.667 11.0658 15.4519 10.4627 15.049C9.85969 14.6461 9.38968 14.0734 9.11213 13.4033C8.83459 12.7332 8.76197 11.9959 8.90346 11.2846C9.04495 10.5733 9.3942 9.91988 9.90704 9.40704C10.4199 8.8942 11.0733 8.54495 11.7846 8.40346C12.4959 8.26197 13.2332 8.33459 13.9033 8.61213C14.5734 8.88968 15.1461 9.35969 15.549 9.96272C15.9519 10.5658 16.167 11.2747 16.167 12C16.167 12.9725 15.7807 13.9053 15.093 14.593C14.4053 15.2807 13.4725 15.667 12.5 15.667ZM18.372 4.808C18.1109 4.808 17.8557 4.88542 17.6386 5.03046C17.4216 5.1755 17.2524 5.38166 17.1525 5.62286C17.0526 5.86406 17.0264 6.12946 17.0774 6.38552C17.1283 6.64157 17.254 6.87678 17.4386 7.06138C17.6232 7.24599 17.8584 7.3717 18.1145 7.42264C18.3705 7.47357 18.6359 7.44743 18.8771 7.34752C19.1183 7.24761 19.3245 7.07843 19.4695 6.86135C19.6146 6.64428 19.692 6.38907 19.692 6.128C19.692 5.77791 19.5529 5.44217 19.3054 5.19462C19.0578 4.94707 18.7221 4.808 18.372 4.808Z" fill="black"/>
</svg>
