<svg width="17" height="16" viewBox="0 0 17 16" fill="none" xmlns="http://www.w3.org/2000/svg">
<path fill-rule="evenodd" clip-rule="evenodd" d="M2.6537 7.07677C2.6537 4.35783 4.85783 2.1537 7.57677 2.1537C10.2957 2.1537 12.4999 4.35783 12.4999 7.07677C12.4999 9.79573 10.2957 11.9999 7.57677 11.9999C4.85783 11.9999 2.6537 9.79573 2.6537 7.07677ZM7.57677 0.615234C4.00816 0.615234 1.11523 3.50816 1.11523 7.07677C1.11523 10.6454 4.00816 13.5383 7.57677 13.5383C9.08385 13.5383 10.4705 13.0223 11.5696 12.1574L14.2636 14.8515C14.564 15.1518 15.0511 15.1518 15.3515 14.8515C15.6518 14.5511 15.6518 14.064 15.3515 13.7636L12.6574 11.0696C13.5223 9.9705 14.0383 8.58385 14.0383 7.07677C14.0383 3.50816 11.1454 0.615234 7.57677 0.615234Z" fill="#B8B8B8"/>
</svg>