<svg width="19" height="19" viewBox="0 0 19 19" fill="none" xmlns="http://www.w3.org/2000/svg">
<path d="M16.5609 4.87842L7.60156 9.89864" stroke="#424242" stroke-width="1.25" stroke-linejoin="round"/>
<path d="M8.7415 15.2266C8.95485 16.1151 9.06153 16.5594 9.28448 16.7196C9.47786 16.8586 9.72639 16.8957 9.95195 16.8194C10.212 16.7314 10.4439 16.3377 10.9078 15.5504L16.4946 6.0685C16.8385 5.48487 17.0105 5.19306 16.9867 4.95326C16.9661 4.74413 16.8573 4.55372 16.6876 4.42975C16.493 4.2876 16.1543 4.2876 15.4769 4.2876H4.66426C3.76473 4.2876 3.31496 4.2876 3.10766 4.46514C2.9278 4.61918 2.83275 4.85014 2.85208 5.08616C2.87437 5.35819 3.19385 5.67476 3.83281 6.30792L7.06615 9.5119C7.21416 9.65857 7.28817 9.73191 7.34806 9.81515C7.40122 9.88904 7.44602 9.96861 7.48164 10.0524C7.52175 10.1468 7.54608 10.2481 7.59473 10.4507L8.7415 15.2266Z" stroke="#424242" stroke-width="1.25" stroke-linejoin="round"/>
</svg>
