<svg width="17" height="17" viewBox="0 0 17 17" fill="none" xmlns="http://www.w3.org/2000/svg">
<path d="M12.8407 15.507C12.7201 15.5072 12.6016 15.4743 12.4983 15.4119L8.7203 13.1496L4.9423 15.4119C4.83114 15.4786 4.70295 15.5114 4.57344 15.5063C4.44392 15.5012 4.3187 15.4585 4.21311 15.3833C4.10753 15.3081 4.02617 15.2038 3.97899 15.0831C3.93181 14.9623 3.92087 14.8305 3.9475 14.7036L4.86092 10.341L1.61028 7.44317C1.51475 7.35828 1.44567 7.2477 1.41128 7.12463C1.37689 7.00155 1.37865 6.87118 1.41633 6.74907C1.45402 6.62696 1.52604 6.51828 1.62381 6.43599C1.72158 6.3537 1.84097 6.30128 1.96772 6.28499L6.33686 5.71533L8.11552 1.87874C8.16904 1.76343 8.25442 1.66582 8.36158 1.59742C8.46873 1.52902 8.59321 1.49268 8.72034 1.49268C8.84747 1.49268 8.97195 1.52902 9.07911 1.59742C9.18627 1.66582 9.27164 1.76343 9.32516 1.87874L11.1038 5.71533L15.473 6.28499C15.5997 6.30128 15.7191 6.3537 15.8169 6.43599C15.9147 6.51828 15.9867 6.62697 16.0244 6.74908C16.0621 6.8712 16.0638 7.00157 16.0294 7.12465C15.995 7.24773 15.9259 7.35831 15.8304 7.4432L12.5797 10.341L13.4931 14.7036C13.5135 14.8006 13.5119 14.901 13.4886 14.9973C13.4652 15.0937 13.4207 15.1836 13.3582 15.2606C13.2957 15.3376 13.2168 15.3996 13.1273 15.4422C13.0378 15.4849 12.9399 15.507 12.8407 15.507ZM8.7203 11.7056C8.84095 11.7057 8.95931 11.7385 9.06275 11.8006L11.8759 13.4855L11.1956 10.2369C11.1715 10.1221 11.1781 10.003 11.2148 9.89169C11.2515 9.78034 11.3169 9.68066 11.4045 9.60274L13.855 7.41846L10.5673 6.98942C10.4557 6.97499 10.3497 6.93256 10.2589 6.86608C10.1682 6.7996 10.0958 6.71123 10.0484 6.60921L8.7203 3.74463L7.39218 6.60921C7.34481 6.71123 7.27238 6.7996 7.18166 6.86608C7.09093 6.93256 6.98485 6.97499 6.8733 6.98942L3.58554 7.41846L6.03606 9.6027C6.12366 9.68062 6.18913 9.7803 6.22583 9.89166C6.26252 10.003 6.26915 10.1221 6.24504 10.2368L5.5647 13.4855L8.37786 11.8006C8.4813 11.7385 8.59966 11.7057 8.7203 11.7056Z" fill="#999999"/>
</svg>
