<svg width="19" height="19" viewBox="0 0 19 19" fill="none" xmlns="http://www.w3.org/2000/svg">
<path d="M7.36374 2.02273C7.58608 1.75869 7.98036 1.7249 8.24439 1.94724L10.9163 4.19724C11.0534 4.3127 11.1343 4.48146 11.1385 4.66066C11.1427 4.83984 11.0698 5.01222 10.9382 5.13398L8.26636 7.60712C8.01304 7.8416 7.61761 7.82634 7.38314 7.57302C7.14866 7.31969 7.16393 6.92426 7.41725 6.68979L8.91838 5.3003H6.1543C4.63552 5.3003 3.4043 6.53152 3.4043 8.0503V10.3003V12.5503C3.4043 14.0691 4.63552 15.3003 6.1543 15.3003C6.49948 15.3003 6.7793 15.5801 6.7793 15.9253C6.7793 16.2705 6.49948 16.5503 6.1543 16.5503C3.94517 16.5503 2.1543 14.7594 2.1543 12.5503V10.3003V8.0503C2.1543 5.84116 3.94517 4.05031 6.1543 4.05031H8.8012L7.43922 2.90337C7.17519 2.68103 7.14139 2.28676 7.36374 2.02273Z" fill="#424242"/>
<path d="M12.5386 18.5778C12.3163 18.8419 11.922 18.8757 11.658 18.6533L8.98608 16.4033C8.84898 16.2879 8.76804 16.1191 8.76384 15.9399C8.75964 15.7607 8.83257 15.5884 8.96411 15.4666L11.636 12.9934C11.8893 12.759 12.2848 12.7742 12.5192 13.0276C12.7537 13.2809 12.7384 13.6763 12.4851 13.9108L10.984 15.3003H13.7481C15.2669 15.3003 16.4981 14.069 16.4981 12.5503V10.3003V8.05029C16.4981 6.53151 15.2669 5.30029 13.7481 5.30029C13.4029 5.30029 13.1231 5.02047 13.1231 4.67529C13.1231 4.33012 13.4029 4.05029 13.7481 4.05029C15.9572 4.05029 17.7481 5.84116 17.7481 8.05029V10.3003V12.5503C17.7481 14.7594 15.9572 16.5503 13.7481 16.5503H11.1012L12.4632 17.6972C12.7272 17.9195 12.761 18.3138 12.5386 18.5778Z" fill="#424242"/>
</svg>
