<svg width="19" height="19" viewBox="0 0 19 19" fill="none" xmlns="http://www.w3.org/2000/svg">
<path d="M7.14303 1.73513C7.36537 1.47109 7.75965 1.4373 8.02368 1.65964L10.6956 3.90964C10.8327 4.0251 10.9136 4.19386 10.9178 4.37306C10.922 4.55225 10.8491 4.72462 10.7175 4.84638L8.04565 7.31953C7.79233 7.55401 7.3969 7.53874 7.16243 7.28542C6.92795 7.0321 6.94322 6.63667 7.19654 6.40219L8.69767 5.01271H5.93359C4.41481 5.01271 3.18359 6.24393 3.18359 7.76271V10.0127V12.2627C3.18359 13.7815 4.41481 15.0127 5.93359 15.0127C6.27877 15.0127 6.55859 15.2925 6.55859 15.6377C6.55859 15.9829 6.27877 16.2627 5.93359 16.2627C3.72446 16.2627 1.93359 14.4718 1.93359 12.2627V10.0127V7.76271C1.93359 5.55357 3.72446 3.76271 5.93359 3.76271H8.58049L7.21851 2.61578C6.95448 2.39344 6.92068 1.99916 7.14303 1.73513Z" fill="#CCCCCC"/>
<path d="M12.3179 18.2902C12.0956 18.5543 11.7013 18.5881 11.4373 18.3657L8.76538 16.1157C8.62828 16.0003 8.54734 15.8315 8.54314 15.6523C8.53894 15.4731 8.61187 15.3008 8.74341 15.179L11.4153 12.7058C11.6686 12.4714 12.0641 12.4866 12.2985 12.74C12.533 12.9933 12.5177 13.3887 12.2644 13.6232L10.7633 15.0127H13.5274C15.0462 15.0127 16.2774 13.7814 16.2774 12.2627V10.0127V7.7627C16.2774 6.24392 15.0462 5.0127 13.5274 5.0127C13.1822 5.0127 12.9024 4.73288 12.9024 4.3877C12.9024 4.04253 13.1822 3.7627 13.5274 3.7627C15.7365 3.7627 17.5274 5.55357 17.5274 7.7627V10.0127V12.2627C17.5274 14.4718 15.7365 16.2627 13.5274 16.2627H10.8805L12.2425 17.4096C12.5065 17.6319 12.5403 18.0262 12.3179 18.2902Z" fill="#CCCCCC"/>
</svg>
