<svg width="20" height="19" viewBox="0 0 20 19" fill="none" xmlns="http://www.w3.org/2000/svg">
<path d="M1.74023 7.96989V7.97945C1.74022 8.50204 1.7402 9.25291 2.07081 10.183C2.40247 11.1161 3.0491 12.1851 4.27467 13.4107C6.16625 15.3023 8.23742 16.8139 9.02161 17.3641C9.43971 17.6574 9.9923 17.6574 10.4103 17.364C11.1943 16.8137 13.2649 15.3022 15.1563 13.4107C16.3818 12.1851 17.0285 11.1161 17.3602 10.183C17.6908 9.25292 17.6908 8.50204 17.6907 7.97945V7.96989C17.6907 5.57761 16.0539 3.51025 13.524 3.51025C12.342 3.51025 11.4273 4.06488 10.7491 4.76521C10.3302 5.19788 9.99004 5.69682 9.71549 6.18247C9.44096 5.69682 9.10082 5.19788 8.68187 4.76521C8.00374 4.06488 7.08905 3.51025 5.9069 3.51025C3.37706 3.51025 1.74023 5.57761 1.74023 7.96989Z" stroke="#CCCCCC" stroke-width="1.30208"/>
</svg>