<svg width="34" height="34" viewBox="0 0 34 34" fill="none" xmlns="http://www.w3.org/2000/svg">
<path d="M25.1412 15.7583C24.9946 15.6881 24.8458 15.6206 24.695 15.5559C24.4324 10.7203 21.7885 7.95193 17.3491 7.92359C17.3289 7.92347 17.3089 7.92347 17.2888 7.92347C14.6335 7.92347 12.4251 9.0562 11.0658 11.1174L13.5073 12.7912C14.5228 11.2516 16.1164 10.9233 17.29 10.9233C17.3036 10.9233 17.3172 10.9233 17.3306 10.9235C18.7923 10.9328 19.8953 11.3575 20.6093 12.1858C21.1288 12.7888 21.4763 13.6221 21.6483 14.6738C20.3523 14.4537 18.9507 14.386 17.4524 14.4718C13.2316 14.7148 10.5181 17.1749 10.7003 20.5934C10.7928 22.3274 11.6572 23.8191 13.1342 24.7936C14.3829 25.6174 15.9912 26.0203 17.6628 25.9291C19.8702 25.8081 21.6019 24.9664 22.81 23.4274C23.7275 22.2587 24.3078 20.7441 24.564 18.8356C25.616 19.4701 26.3957 20.3051 26.8263 21.3088C27.5584 23.015 27.6011 25.8187 25.312 28.1045C23.3063 30.107 20.8954 30.9733 17.2519 31C13.2102 30.9701 10.1536 29.6747 8.1662 27.1499C6.30521 24.7856 5.34344 21.3708 5.30756 17C5.34344 12.6292 6.30521 9.21428 8.1662 6.85006C10.1536 4.32524 13.2102 3.0299 17.2518 2.99988C21.3228 3.03013 24.4327 4.33171 26.4962 6.86871C27.5079 8.11282 28.2708 9.67739 28.7736 11.5016L31.6348 10.7387C31.0252 8.49331 30.0661 6.55841 28.7609 4.95373C26.1156 1.70118 22.2467 0.0345575 17.2618 0H17.2419C12.2671 0.0344374 8.44156 1.7074 5.87158 4.97238C3.58465 7.8778 2.40498 11.9205 2.36534 16.988L2.36522 17L2.36534 17.012C2.40498 22.0795 3.58465 26.1223 5.87158 29.0277C8.44156 32.2926 12.2671 33.9656 17.2419 34H17.2618C21.6846 33.9694 24.8022 32.8121 27.3704 30.2478C30.7306 26.8929 30.6294 22.6877 29.5219 20.1062C28.7274 18.255 27.2126 16.7514 25.1412 15.7583ZM17.5047 22.9335C15.6548 23.0377 13.733 22.2078 13.6382 20.4305C13.568 19.1126 14.5767 17.6421 17.6183 17.4669C17.9666 17.4469 18.3084 17.437 18.6442 17.437C19.749 17.437 20.7826 17.5443 21.7222 17.7496C21.3717 22.1239 19.3159 22.8342 17.5047 22.9335Z" fill="#f3f5f7"/>
</svg>
