<svg width="20" height="20" viewBox="0 0 20 20" fill="none" xmlns="http://www.w3.org/2000/svg">
<path d="M7.68694 19.6109C6.70477 20.3964 5.25 19.6972 5.25 18.4395V16.3506H5C2.37665 16.3506 0.25 14.2239 0.25 11.6006V9.35059V6.10059C0.25 3.47724 2.37665 1.35059 5 1.35059H5.5H14.2188H14.9688C17.5921 1.35059 19.7188 3.47724 19.7188 6.10059V9.35059V11.6006C19.7188 14.2239 17.5921 16.3506 14.9688 16.3506H14.2188H11.763L7.68694 19.6109ZM6.75 18.4395L10.8261 15.1792C11.0921 14.9665 11.4225 14.8506 11.763 14.8506H14.2187H14.9688C16.7637 14.8506 18.2188 13.3955 18.2188 11.6006V9.35059V6.10059C18.2188 4.30567 16.7637 2.85059 14.9688 2.85059H14.2188H5.5H5C3.20507 2.85059 1.75 4.30567 1.75 6.10059V9.35059V11.6006C1.75 13.3955 3.20508 14.8506 5 14.8506H5.25C6.07843 14.8506 6.75 15.5221 6.75 16.3506V18.4395Z" fill="#f3f5f7"/>
<path d="M7.67735 6.5C6.62472 6.5 5.82617 7.20469 5.82617 8.20517C5.82617 9.16216 6.45231 9.90164 7.44142 9.90164C7.80439 9.90164 8.16737 9.84074 8.4033 9.57105H8.46682C8.14922 10.2583 7.48679 10.702 6.9151 10.8412C6.58842 10.9282 6.4886 11.0674 6.4886 11.2675C6.4886 11.485 6.67009 11.6503 6.92418 11.6503C7.81347 11.6503 9.58298 10.6411 9.58298 8.51837C9.58298 7.37869 8.81165 6.5 7.67735 6.5Z" fill="#f3f5f7"/>
<path d="M12.396 6.5C11.3434 6.5 10.5449 7.20469 10.5449 8.20517C10.5449 9.16216 11.171 9.90164 12.1692 9.90164C12.5231 9.90164 12.8861 9.84074 13.122 9.57105H13.1855C12.8679 10.2583 12.2055 10.702 11.6338 10.8412C11.3071 10.9282 11.2073 11.0674 11.2073 11.2675C11.2073 11.485 11.3888 11.6503 11.6429 11.6503C12.5322 11.6503 14.3017 10.6411 14.3017 8.51837C14.3017 7.37869 13.5303 6.5 12.396 6.5Z" fill="#f3f5f7"/>
</svg>
