<svg width="19" height="19" viewBox="0 0 19 19" fill="none" xmlns="http://www.w3.org/2000/svg">
<path d="M16.3402 4.59082L7.38086 9.61104" stroke="#CCCCCC" stroke-width="1.25" stroke-linejoin="round"/>
<path d="M8.52079 14.939C8.73414 15.8275 8.84082 16.2718 9.06377 16.432C9.25715 16.571 9.50568 16.6081 9.73124 16.5318C9.9913 16.4438 10.2232 16.0501 10.6871 15.2628L16.2739 5.7809C16.6178 5.19727 16.7898 4.90546 16.766 4.66566C16.7454 4.45653 16.6366 4.26612 16.4669 4.14215C16.2723 4 15.9336 4 15.2562 4H4.44355C3.54402 4 3.09425 4 2.88695 4.17754C2.70709 4.33158 2.61204 4.56254 2.63137 4.79856C2.65366 5.07059 2.97314 5.38716 3.6121 6.02032L6.84544 9.2243C6.99345 9.37097 7.06746 9.44431 7.12735 9.52755C7.18051 9.60144 7.22531 9.68101 7.26093 9.76479C7.30104 9.85916 7.32537 9.96047 7.37402 10.1631L8.52079 14.939Z" stroke="#CCCCCC" stroke-width="1.25" stroke-linejoin="round"/>
</svg>
