<svg width="20" height="20" viewBox="0 0 20 20" fill="none" xmlns="http://www.w3.org/2000/svg">
<path d="M1.96289 8.53727V8.54683C1.96288 9.06942 1.96286 9.82029 2.29346 10.7504C2.62513 11.6835 3.27176 12.7525 4.49733 13.9781C6.38891 15.8697 8.46008 17.3813 9.24427 17.9315C9.66237 18.2248 10.215 18.2248 10.633 17.9314C11.417 17.3811 13.4875 15.8696 15.379 13.9781C16.6045 12.7525 17.2512 11.6835 17.5828 10.7504C17.9135 9.8203 17.9135 9.06942 17.9134 8.54683V8.53727C17.9134 6.14499 16.2766 4.07764 13.7467 4.07764C12.5646 4.07764 11.6499 4.63226 10.9718 5.3326C10.5528 5.76526 10.2127 6.2642 9.93815 6.74986C9.66362 6.2642 9.32347 5.76526 8.90453 5.3326C8.2264 4.63226 7.3117 4.07764 6.12956 4.07764C3.59971 4.07764 1.96289 6.14499 1.96289 8.53727Z" stroke="#424242" stroke-width="1.30208"/>
</svg>