<svg width="18" height="18" viewBox="0 0 18 18" fill="none" xmlns="http://www.w3.org/2000/svg">
<g clip-path="url(#clip0_401_6)">
<path d="M0 9.40524C0 9.13901 0.0730089 8.91716 0.219027 8.73968C0.365044 8.55752 0.570796 8.43609 0.836283 8.37537C1.26549 8.2913 1.57079 8.12316 1.75221 7.87094C1.93363 7.61873 2.02434 7.22407 2.02434 6.68695V5.04056C2.02434 3.99435 2.25885 3.22603 2.72787 2.73562C3.20133 2.24521 3.92257 2 4.89159 2C5.0907 2 5.25885 2.02335 5.39602 2.07006C5.58186 2.13078 5.71903 2.22185 5.80752 2.34329C5.89601 2.46472 5.94027 2.61185 5.94027 2.78466C5.94027 3.13029 5.79425 3.3498 5.50221 3.44322C5.46239 3.45723 5.41593 3.4689 5.36283 3.47824C5.31416 3.48759 5.26328 3.49693 5.21018 3.50627C4.6969 3.5483 4.33629 3.70243 4.12832 3.96866C3.92035 4.23021 3.81637 4.65991 3.81637 5.25774V7.29646C3.81637 7.90831 3.65265 8.38938 3.32523 8.73968C3.00221 9.08997 2.55753 9.29781 1.99115 9.3632C1.96018 9.36787 1.94469 9.38655 1.94469 9.41925C1.94469 9.44727 1.96018 9.46128 1.99115 9.46128C2.55753 9.52667 3.00221 9.73685 3.32523 10.0918C3.65265 10.4421 3.81637 10.9232 3.81637 11.535V13.5737C3.81637 14.1716 3.92035 14.6013 4.12832 14.8628C4.33629 15.1291 4.6969 15.2855 5.21018 15.3322C5.25443 15.3369 5.29646 15.3416 5.33628 15.3462C5.37611 15.3556 5.41593 15.3673 5.45575 15.3813C5.77876 15.4653 5.94027 15.6872 5.94027 16.0468C5.94027 16.215 5.89381 16.3621 5.80089 16.4882C5.70796 16.619 5.56637 16.7124 5.37611 16.7684C5.23894 16.8058 5.09292 16.8245 4.93805 16.8245C3.95133 16.8245 3.21903 16.5816 2.74115 16.0959C2.26327 15.6148 2.02434 14.8465 2.02434 13.7909V12.1445C2.02434 11.6027 1.93363 11.2057 1.75221 10.9535C1.57079 10.7013 1.26549 10.5332 0.836283 10.4491C0.570796 10.3884 0.365044 10.2693 0.219027 10.0918C0.0730089 9.90966 0 9.6808 0 9.40524ZM5.91372 10.6103C5.60398 10.6103 5.33407 10.4911 5.10399 10.2529C4.87832 10.0101 4.76549 9.72751 4.76549 9.40524C4.76549 9.19506 4.81637 8.99889 4.91814 8.81674C5.02434 8.62992 5.16372 8.48046 5.33628 8.36836C5.51328 8.25627 5.70575 8.20022 5.91372 8.20022C6.12168 8.20022 6.31195 8.25627 6.48451 8.36836C6.65708 8.48046 6.79425 8.62992 6.89602 8.81674C7.00221 8.99889 7.05531 9.19506 7.05531 9.40524C7.05531 9.72751 6.94248 10.0101 6.71681 10.2529C6.49115 10.4911 6.22345 10.6103 5.91372 10.6103ZM9 10.6103C8.69469 10.6103 8.42699 10.4911 8.19691 10.2529C7.97124 10.0101 7.8584 9.72751 7.8584 9.40524C7.8584 9.19506 7.9115 8.99889 8.0177 8.81674C8.12389 8.62992 8.26327 8.48046 8.43584 8.36836C8.60841 8.25627 8.79646 8.20022 9 8.20022C9.20797 8.20022 9.39823 8.25627 9.57079 8.36836C9.7434 8.48046 9.88048 8.62992 9.98233 8.81674C10.0885 8.99889 10.1416 9.19506 10.1416 9.40524C10.1416 9.61541 10.0885 9.81391 9.98233 10.0007C9.88048 10.1829 9.7434 10.33 9.57079 10.4421C9.39823 10.5542 9.20797 10.6103 9 10.6103ZM12.0862 10.6103C11.7765 10.6103 11.5088 10.4911 11.2832 10.2529C11.0619 10.0101 10.9513 9.72751 10.9513 9.40524C10.9513 9.19506 11.0022 8.99889 11.104 8.81674C11.2058 8.62992 11.3429 8.48046 11.5155 8.36836C11.6925 8.25627 11.8827 8.20022 12.0862 8.20022C12.2986 8.20022 12.4911 8.25627 12.6638 8.36836C12.8363 8.48046 12.9735 8.62992 13.0752 8.81674C13.1814 8.99889 13.2345 9.19506 13.2345 9.40524C13.2345 9.72751 13.1217 10.0101 12.8961 10.2529C12.6704 10.4911 12.4005 10.6103 12.0862 10.6103ZM18 9.40524C18 9.6808 17.927 9.90966 17.781 10.0918C17.6393 10.2693 17.4358 10.3884 17.1704 10.4491C16.7367 10.5332 16.4292 10.7013 16.2477 10.9535C16.0663 11.2057 15.9757 11.6027 15.9757 12.1445V13.7909C15.9757 14.8465 15.7367 15.6148 15.2589 16.0959C14.7854 16.5816 14.0531 16.8245 13.0619 16.8245C12.907 16.8245 12.7632 16.8058 12.6305 16.7684C12.4358 16.7124 12.292 16.619 12.1991 16.4882C12.1062 16.3621 12.0597 16.215 12.0597 16.0468C12.0597 15.6872 12.2234 15.4653 12.5509 15.3813C12.5863 15.3673 12.6239 15.3556 12.6638 15.3462C12.7035 15.3416 12.7478 15.3369 12.7965 15.3322C13.3053 15.2855 13.6637 15.1291 13.8717 14.8628C14.0841 14.6013 14.1903 14.1716 14.1903 13.5737V11.535C14.1903 10.9232 14.3518 10.4421 14.6747 10.0918C14.9978 9.73685 15.4447 9.52667 16.0155 9.46128C16.0421 9.46128 16.0553 9.44727 16.0553 9.41925C16.0597 9.38655 16.0464 9.36787 16.0155 9.3632C15.4447 9.29781 14.9978 9.08997 14.6747 8.73968C14.3518 8.38938 14.1903 7.90831 14.1903 7.29646V5.25774C14.1903 4.65991 14.0841 4.23021 13.8717 3.96866C13.6637 3.70243 13.3053 3.5483 12.7965 3.50627C12.739 3.49693 12.6858 3.48759 12.6371 3.47824C12.5885 3.4689 12.5442 3.45723 12.5044 3.44322C12.208 3.3498 12.0597 3.13029 12.0597 2.78466C12.0597 2.61185 12.104 2.46472 12.1924 2.34329C12.2854 2.22185 12.4247 2.13078 12.6106 2.07006C12.7478 2.02335 12.9137 2 13.1085 2C14.0819 2 14.8031 2.24521 15.2721 2.73562C15.7412 3.22603 15.9757 3.99435 15.9757 5.04056V6.68695C15.9757 7.22407 16.0663 7.61873 16.2477 7.87094C16.4336 8.12316 16.7411 8.2913 17.1704 8.37537C17.4358 8.43609 17.6393 8.55752 17.781 8.73968C17.927 8.91716 18 9.13901 18 9.40524Z" fill="#F3F5F7"/>
</g>
<defs>
<clipPath id="clip0_401_6">
<rect width="18" height="15" fill="white" transform="translate(0 2)"/>
</clipPath>
</defs>
</svg>
