<svg width="20" height="20" viewBox="0 0 20 20" fill="none" xmlns="http://www.w3.org/2000/svg">
<path fill-rule="evenodd" clip-rule="evenodd" d="M10.1744 19.3344C10.268 19.4704 10.3432 19.5376 10.4008 19.5376C10.4584 19.5376 10.5312 19.4696 10.6192 19.3344C10.7136 19.204 10.8072 19.0304 10.9008 18.8112C11.0006 18.579 11.079 18.3383 11.1352 18.092C11.1976 17.8264 11.2288 17.5664 11.2288 17.3112V14.3432L10.344 13.592L9.56479 12.9312L8.65919 12.1632H5.81519C5.66879 12.1632 5.60879 12.0792 5.63519 11.9128C5.68719 11.5688 5.83839 11.2248 6.08799 10.8808C6.22369 10.6958 6.37722 10.5246 6.54639 10.3696L5.49839 9.47998C5.15528 9.81215 4.86186 10.1921 4.62719 10.608C4.30959 11.176 4.15039 11.7592 4.15039 12.3576C4.15039 12.728 4.26559 13.0272 4.49439 13.256C4.72879 13.48 5.03839 13.592 5.42399 13.592H9.56479V17.3112C9.56479 17.5664 9.59679 17.8264 9.65839 18.092C9.72079 18.3576 9.79919 18.5976 9.89279 18.8112C9.98639 19.0296 10.0808 19.204 10.1744 19.3344ZM7.55039 8.07358L7.79919 4.45118C7.47134 4.22951 7.14859 4.00038 6.83119 3.76398C6.55281 3.55438 6.28146 3.33559 6.01759 3.10798C5.81857 2.93186 5.63571 2.73829 5.47119 2.52958C5.25199 2.25358 5.14319 1.97518 5.14319 1.69358C5.14319 1.42318 5.23679 1.19918 5.42399 1.02158C5.61679 0.839179 5.86719 0.748779 6.17439 0.748779H14.6272C14.9344 0.748779 15.1824 0.839179 15.3696 1.02158C15.5616 1.19918 15.6584 1.42318 15.6584 1.69358C15.6584 1.97518 15.5496 2.25358 15.3304 2.52958C15.1642 2.73942 14.9786 2.93309 14.776 3.10798C14.5416 3.31598 14.2704 3.53518 13.9632 3.76398C13.656 3.99358 13.336 4.22238 13.0024 4.45198L13.2504 8.16718C13.8229 8.39606 14.3602 8.70472 14.8464 9.08398C15.4144 9.53198 15.8544 10.04 16.1664 10.608C16.484 11.176 16.6432 11.7592 16.6432 12.3576C16.6432 12.728 16.5288 13.0272 16.2992 13.256C16.0704 13.48 15.7632 13.592 15.3776 13.592H14.0536L12.3688 12.1624H14.9792C15.1248 12.1624 15.1848 12.0792 15.1584 11.9128C15.112 11.5688 14.9632 11.2248 14.7136 10.8808C14.4632 10.5368 14.1296 10.2248 13.7136 9.94398C13.2605 9.64558 12.7655 9.41639 12.2448 9.26398C11.6465 9.08628 11.0249 8.99945 10.4008 9.00638C9.88021 9.00249 9.36103 9.06104 8.85439 9.18078L8.38239 8.77998L7.62319 8.13518L7.55039 8.07358ZM9.07279 7.73038L9.30719 3.78718C9.31199 3.65198 9.26559 3.56078 9.16639 3.51438C8.93328 3.39074 8.70385 3.26029 8.47839 3.12318C8.27039 2.99358 8.08079 2.87118 7.90879 2.75598C7.74159 2.64158 7.60159 2.53998 7.48639 2.45198C7.4087 2.38676 7.33319 2.31899 7.25999 2.24878C7.22879 2.20638 7.22079 2.17038 7.23599 2.13918C7.24498 2.12442 7.2577 2.11228 7.27286 2.104C7.28803 2.09571 7.30511 2.09157 7.32239 2.09198H13.4712C13.5128 2.09198 13.5416 2.10798 13.5568 2.13918C13.5776 2.17038 13.5704 2.20638 13.5336 2.24878C13.4604 2.31871 13.3849 2.38622 13.3072 2.45118C13.1976 2.53998 13.0592 2.64158 12.8928 2.75598C12.4851 3.02737 12.0655 3.28042 11.6352 3.51438C11.536 3.56078 11.4912 3.65198 11.5024 3.78718L11.7304 7.73118C11.291 7.65833 10.8462 7.62248 10.4008 7.62398C9.94079 7.62398 9.49839 7.65918 9.07279 7.73038Z" fill="black"/>
<path d="M1.49609 3.11035L18.0561 17.1624L1.49609 3.11035Z" fill="black"/>
<path d="M1.49609 3.11035L18.0561 17.1624" stroke="black" stroke-width="1.6" stroke-linecap="round"/>
</svg>
