<svg width="19" height="20" viewBox="0 0 19 20" fill="none" xmlns="http://www.w3.org/2000/svg">
<g clip-path="url(#clip0_405_19)">
<path d="M2.10938 5.2912V17.3808C2.10938 18.9911 4.02625 19.8304 5.20952 18.7381L9.74017 14.556L13.7338 18.5495C14.4178 19.2336 15.3873 19.2307 16.0702 18.7779L9.97577 12.8905C9.58377 12.8219 9.16618 12.9311 8.85256 13.2206L4.13559 17.5747C3.96655 17.7307 3.6927 17.6108 3.6927 17.3808V6.82076L2.10938 5.2912ZM15.3038 11.7807V3.54167C15.3038 2.46011 14.4271 1.58334 13.3455 1.58334H5.65104C5.38561 1.58334 5.13249 1.63615 4.90166 1.73183L3.70886 0.57954C4.26654 0.213145 4.9339 0 5.65104 0H13.3455C15.3015 0 16.8872 1.58566 16.8872 3.54167V13.3103L15.3038 11.7807Z" fill="black"/>
<path d="M1 1.0918L18 17.5918Z" fill="black"/>
<path d="M1 1.0918L18 17.5918" stroke="black" stroke-width="1.5" stroke-linecap="round"/>
</g>
<defs>
<clipPath id="clip0_405_19">
<rect width="19" height="19.2316" fill="none"/>
</clipPath>
</defs>
</svg>